<svg width="376" height="184" viewBox="0 0 376 184" fill="none" xmlns="http://www.w3.org/2000/svg">
<rect x="4" width="368" height="176" rx="20" fill="#132038"/>
<mask id="mask0_232_54" style="mask-type:alpha" maskUnits="userSpaceOnUse" x="4" y="0" width="368" height="176">
<rect x="4" width="368" height="176" rx="20" fill="#2CA2FB"/>
</mask>
<g mask="url(#mask0_232_54)">
<path d="M20.3271 53.6656C24.6281 113.42 -13.6221 112.798 -33.2849 105.018L-60.7514 109.12L-72.2746 -17.9117C-32.2246 -54.732 59.7753 -90.1385 95.5962 -52.1932C141.449 -3.62067 116.478 30.7682 95.5043 26.4235C70.3817 21.2192 15.5464 -12.7523 20.3271 53.6656Z" fill="#00DEFE"/>
<path d="M334.687 74.3676C287.534 24.2792 311.204 -12.7434 327.94 -26.0489L340.513 -57.866L438.722 42.5843C442.649 116.236 416.176 241.96 368.529 245.189C290.295 250.491 292.836 179.744 311.835 175.609C335.777 170.398 385.332 128.165 334.687 74.3676Z" fill="#FCAF3D"/>
</g>
</svg>
