<svg width="423" height="329" viewBox="0 0 423 329" fill="none" xmlns="http://www.w3.org/2000/svg">
<g clip-path="url(#clip0_73_425)">
<path d="M329.924 129.067C333.96 146.193 424.731 179.564 394.632 250.808C380.268 284.809 346.59 310.562 305.059 320.164C191.395 346.451 85.6926 303.698 85.6926 303.698C36.263 282.039 20.8113 250.037 23.9647 219.484C28.5372 175.346 58.3053 170.167 70.3356 153.481C75.6806 146.051 78.1245 136.969 80.4738 127.162C89.6817 88.7066 123.707 63.8199 159.75 69.2348C170.251 70.8089 183.023 73.1858 198.522 76.6804C198.506 76.6804 308.15 36.7767 329.924 129.067Z" stroke="white" stroke-width="2" stroke-miterlimit="10"/>
<path d="M115.712 165.657H321.176C323.926 165.657 326.17 163.429 326.17 160.664V31.2731C326.17 28.5235 323.942 26.2795 321.176 26.2795H115.712C112.963 26.2795 110.719 28.5077 110.719 31.2731V160.679C110.719 163.429 112.947 165.657 115.712 165.657Z" fill="white" stroke="#000870" stroke-width="0.316" stroke-miterlimit="10" stroke-linecap="round" stroke-linejoin="round"/>
<path d="M326.17 35.4292H110.719" stroke="#000870" stroke-width="0.316" stroke-miterlimit="10"/>
<path d="M258.801 111.445L321.679 111.445V39.9075L258.801 39.9075V111.445Z" fill="white" stroke="#000870" stroke-width="0.316" stroke-miterlimit="10" stroke-linecap="round" stroke-linejoin="round"/>
<path d="M258.788 161.021H321.682V116.253H258.788V161.021Z" fill="white" stroke="#000870" stroke-width="0.316" stroke-miterlimit="10" stroke-linecap="round" stroke-linejoin="round"/>
<path d="M254.205 98.1965H115.064V161.027H254.205V98.1965Z" fill="white" stroke="#000870" stroke-width="0.316" stroke-miterlimit="10" stroke-linecap="round" stroke-linejoin="round"/>
<path d="M115.08 93.7561L254.205 93.7561V39.9171L115.08 39.9171V93.7561Z" fill="white" stroke="#000870" stroke-width="0.316" stroke-miterlimit="10" stroke-linecap="round" stroke-linejoin="round"/>
<path d="M301.281 127.605C298.025 124.35 293.538 122.343 288.56 122.343C278.62 122.343 270.577 130.386 270.577 140.326C270.577 145.288 272.583 149.792 275.839 153.047C279.094 156.302 283.598 158.309 288.56 158.309C293.538 158.309 298.025 156.286 301.281 153.047C304.536 149.792 306.543 145.304 306.543 140.342C306.543 135.348 304.536 130.86 301.281 127.605Z" fill="white" stroke="#000870" stroke-width="0.316" stroke-miterlimit="10"/>
<path d="M288.56 140.31H309.893C309.893 134.858 307.807 129.391 303.635 125.219C299.463 121.047 294.012 118.977 288.544 118.977L288.56 140.31Z" fill="#06C66C"/>
<path d="M288.56 140.31V118.977C283.108 118.977 277.64 121.063 273.484 125.219L288.56 140.31Z" fill="#000870"/>
<path d="M119.141 152.399L132.621 134.068L150.825 143.234L169.219 120.652L186.871 129.612L204.854 116.259L222.821 134.321L240.82 107.172" stroke="#000870" stroke-width="0.316" stroke-miterlimit="10" stroke-linecap="round" stroke-linejoin="round"/>
<path d="M137.425 62.3723H128.449V89.3313H137.425V62.3723Z" fill="white" stroke="#000870" stroke-width="0.316" stroke-miterlimit="10" stroke-linecap="round" stroke-linejoin="round"/>
<path d="M155.376 80.1819H146.401V89.3315H155.376V80.1819Z" fill="#000870"/>
<path d="M173.328 57.7581H164.352V89.3314H173.328V57.7581Z" fill="white" stroke="#000870" stroke-width="0.316" stroke-miterlimit="10" stroke-linecap="round" stroke-linejoin="round"/>
<path d="M191.343 75.678H182.399V89.3313H191.343V75.678Z" fill="#000870"/>
<path d="M209.326 53.2227H200.366V89.3313H209.326V53.2227Z" fill="white" stroke="#000870" stroke-width="0.316" stroke-miterlimit="10" stroke-linecap="round" stroke-linejoin="round"/>
<path d="M227.309 71.2849H218.333V89.3313H227.309V71.2849Z" fill="#000870"/>
<path d="M245.119 48.7349H236.506V89.3314H245.119V48.7349Z" fill="white" stroke="#000870" stroke-width="0.316" stroke-miterlimit="10" stroke-linecap="round" stroke-linejoin="round"/>
<path d="M119.141 155.149C120.66 155.149 121.891 153.918 121.891 152.399C121.891 150.88 120.66 149.649 119.141 149.649C117.623 149.649 116.392 150.88 116.392 152.399C116.392 153.918 117.623 155.149 119.141 155.149Z" fill="#06C66C"/>
<path d="M150.889 145.841C152.407 145.841 153.638 144.61 153.638 143.091C153.638 141.573 152.407 140.342 150.889 140.342C149.37 140.342 148.139 141.573 148.139 143.091C148.139 144.61 149.37 145.841 150.889 145.841Z" fill="#06C66C"/>
<path d="M168.856 123.402C170.375 123.402 171.606 122.171 171.606 120.652C171.606 119.133 170.375 117.902 168.856 117.902C167.337 117.902 166.106 119.133 166.106 120.652C166.106 122.171 167.337 123.402 168.856 123.402Z" fill="#06C66C"/>
<path d="M186.871 132.362C188.389 132.362 189.62 131.131 189.62 129.612C189.62 128.093 188.389 126.862 186.871 126.862C185.352 126.862 184.121 128.093 184.121 129.612C184.121 131.131 185.352 132.362 186.871 132.362Z" fill="#06C66C"/>
<path d="M204.854 119.009C206.373 119.009 207.604 117.777 207.604 116.259C207.604 114.74 206.373 113.509 204.854 113.509C203.336 113.509 202.104 114.74 202.104 116.259C202.104 117.777 203.336 119.009 204.854 119.009Z" fill="#06C66C"/>
<path d="M222.821 136.723C224.34 136.723 225.571 135.492 225.571 133.973C225.571 132.455 224.34 131.224 222.821 131.224C221.303 131.224 220.072 132.455 220.072 133.973C220.072 135.492 221.303 136.723 222.821 136.723Z" fill="#06C66C"/>
<path d="M240.821 109.922C242.339 109.922 243.57 108.691 243.57 107.172C243.57 105.654 242.339 104.423 240.821 104.423C239.302 104.423 238.071 105.654 238.071 107.172C238.071 108.691 239.302 109.922 240.821 109.922Z" fill="#06C66C"/>
<path d="M132.937 137.244C134.456 137.244 135.687 136.013 135.687 134.495C135.687 132.976 134.456 131.745 132.937 131.745C131.418 131.745 130.187 132.976 130.187 134.495C130.187 136.013 131.418 137.244 132.937 137.244Z" fill="#06C66C"/>
<path d="M315.519 75.678H305.532C305.532 67.2395 298.673 60.3812 290.235 60.3812V50.394C304.173 50.394 315.519 61.7402 315.519 75.678Z" fill="#06C66C"/>
<path d="M290.235 50.394V60.3812C286.016 60.3812 282.191 62.1037 279.426 64.8691L272.362 57.8054C276.945 53.2385 283.266 50.394 290.235 50.394Z" fill="#000870"/>
<path d="M315.519 75.678C315.519 89.6158 304.173 100.962 290.235 100.962C276.297 100.962 264.951 89.6158 264.951 75.678C264.951 68.7091 267.779 62.3881 272.362 57.8054L279.426 64.8691C276.66 67.6345 274.938 71.4587 274.938 75.678C274.938 84.1165 281.796 90.9748 290.235 90.9748C298.673 90.9748 305.532 84.1165 305.532 75.678H315.519Z" fill="white" stroke="#000870" stroke-width="0.316" stroke-miterlimit="10"/>
<path d="M127.011 329.276H94.6001C94.6634 326.653 94.7266 324.788 94.7582 324.077C94.9478 319.763 93.6994 295.348 92.9567 284.571C92.3878 276.369 94.4737 264.865 95.5167 259.824C95.8485 258.228 96.054 257.28 96.054 257.28L121.322 257.896C121.322 257.896 126.632 294.037 127.201 318.578C127.28 321.738 127.201 325.389 127.011 329.276Z" fill="white" stroke="#000870" stroke-width="0.316" stroke-miterlimit="10"/>
<path d="M108.664 321.027C108.728 323.524 108.696 326.305 108.601 329.276H76.9172C76.9488 327.917 76.9804 326.937 76.9962 326.479C77.1858 322.165 75.9058 297.75 75.1473 286.957C74.4046 276.18 78.1181 259.666 78.1181 259.666L95.5009 259.808L116.502 259.982L107.795 304.988C108.222 310.55 108.538 316.018 108.664 321.027Z" fill="white" stroke="#000870" stroke-width="0.316" stroke-miterlimit="10"/>
<path d="M52.2969 317.345C46.4974 310.929 47.2243 307.168 47.4929 301.843L48.046 297.45L52.5339 305.477C53.7823 307.721 56.1685 308.29 57.9226 306.757C59.5344 305.335 60.0875 302.586 59.2026 300.278L53.5611 285.487C55.0939 280.288 52.929 275.895 52.929 275.895H37.5058L37.9483 301.148C38.1853 309.112 40.2238 316.618 44.9804 321.722L47.6826 324.156C49.4525 325.752 51.9967 325.088 53.0554 322.75L53.0712 322.734C53.8614 320.932 53.5295 318.72 52.2969 317.345Z" fill="white" stroke="#000870" stroke-width="0.316" stroke-miterlimit="10" stroke-linecap="round" stroke-linejoin="round"/>
<path d="M87.4258 201.766C87.4258 201.766 93.1147 229.736 106.183 237.511C106.183 237.511 115.112 232.581 111.904 202.319L99.3725 199.965L87.4258 201.766Z" fill="#06C66C"/>
<path d="M93.4308 205.069L94.2209 191.21L106.452 193.09L106.326 196.33L106.01 204.484L101.142 206.839L93.4308 205.069Z" fill="white" stroke="#000870" stroke-width="0.316" stroke-miterlimit="10" stroke-linecap="round" stroke-linejoin="round"/>
<path d="M102.691 205.717H101.158H99.5937V229.989C101.395 235.125 106.215 238.222 106.215 238.222C106.215 238.222 108.854 234.303 109.233 232.423L102.691 205.717Z" fill="white"/>
<path d="M88.9745 201.529L97.1759 208.798L101.142 205.717L93.6046 200.17L88.9745 201.529Z" fill="#06C66C"/>
<path d="M109.96 201.94L104.635 208.182L101.142 205.717L106.136 201.245L109.96 201.94Z" fill="#06C66C"/>
<path d="M106.199 236.042C106.199 236.042 114.29 221.219 109.96 201.94C109.96 201.94 119.647 203.457 131.451 207.36V291.082C131.404 292.425 130.314 293.515 128.955 293.547L72.6347 294.59C71.3073 294.621 70.1695 293.642 70.0115 292.314L66.2031 209.794C65.8712 207.329 67.5147 205.037 69.9483 204.547C75.3053 203.473 84.1547 201.655 88.9586 201.529C88.9744 201.529 95.0584 227.319 106.199 236.042Z" fill="#000870"/>
<path d="M35.0406 292.583L59.4238 292.472C59.4238 292.472 54.8569 264.612 76.5063 241.288L71.3231 204.263C71.3231 204.263 36.4944 206.839 35.0406 292.583Z" fill="#000870"/>
<path d="M91.5187 186.532C93.652 193.596 101.379 198.621 105.772 196.567C112.078 193.628 111.177 188.571 110.308 181.239C109.107 171.125 102.675 169.608 98.0451 170.999C93.3992 172.421 89.3853 179.484 91.5187 186.532Z" fill="white" stroke="#000870" stroke-width="0.316" stroke-miterlimit="10" stroke-linecap="round" stroke-linejoin="round"/>
<path d="M105.63 162.892C104.287 162.939 103.023 163.334 101.948 163.982C100.494 162.133 98.2031 160.98 95.6747 161.059C91.4396 161.201 88.1211 164.741 88.2633 168.976C88.295 169.956 88.5162 170.872 88.8638 171.725C88.3898 171.646 87.8999 171.615 87.3942 171.631C83.1592 171.773 79.8406 175.313 79.9829 179.548C80.0461 181.381 80.7414 183.04 81.8633 184.336C80.4095 185.79 79.5246 187.812 79.6036 190.025C79.7458 194.26 83.2856 197.578 87.5206 197.436C91.7557 197.294 95.0742 193.754 94.932 189.519C94.8688 187.686 94.1735 186.027 93.0515 184.731C93.6204 184.162 94.0945 183.514 94.4579 182.803C95.3745 183.151 96.3858 183.324 97.4288 183.293C100.716 183.182 103.45 181.033 104.445 178.094C104.982 178.204 105.551 178.252 106.12 178.22C110.355 178.078 113.674 174.538 113.532 170.303C113.389 166.068 109.865 162.765 105.63 162.892Z" fill="#000870"/>
<path d="M93.3079 192.028C95.6007 191.8 97.2285 189.292 96.9438 186.426C96.659 183.56 94.5695 181.422 92.2768 181.65C89.984 181.877 88.3562 184.385 88.6409 187.251C88.9257 190.117 91.0152 192.256 93.3079 192.028Z" fill="white"/>
<path d="M92.056 184.367C92.056 184.367 94.5212 185.252 94.4264 187.97C94.4264 187.97 92.6249 187.133 91.7874 189.219" stroke="#000870" stroke-width="0.316" stroke-miterlimit="10" stroke-linecap="round" stroke-linejoin="round"/>
<path d="M195.531 172.5C195.531 172.5 191.959 172.532 189.004 176.087L192.781 164.409C196.084 165.405 198.976 166.005 200.556 168.944C202.12 171.884 201.109 185.142 198.865 185.664C196.621 186.169 195.578 180.101 195.578 180.101C195.578 180.101 194.819 176.688 195.531 172.5Z" fill="white" stroke="#000870" stroke-width="0.316" stroke-miterlimit="10" stroke-linecap="round" stroke-linejoin="round"/>
<path d="M159.533 192.285L168.524 183.309L179.049 167.269C180.344 165.199 182.557 163.587 184.99 163.793C185.97 163.872 186.918 163.998 187.535 164.188C187.535 164.188 194.029 159.099 196.447 156.223C198.865 153.347 204.412 145.193 207.209 146.268C210.006 147.342 202.958 157.772 202.326 158.704C201.678 159.637 193.239 170.714 193.239 170.714C193.239 170.714 187.361 178.22 194.788 178.6C194.788 178.6 209.611 174.27 210.527 177.525C210.527 177.525 212.202 179.785 200.587 183.372C200.587 183.372 189.747 187.275 184.564 193.249C179.396 199.222 174.75 204.705 174.75 204.705L159.533 192.285Z" fill="white" stroke="#000870" stroke-width="0.316" stroke-miterlimit="10" stroke-linecap="round" stroke-linejoin="round"/>
<path d="M188.672 191.463L169.678 176.182C169.678 176.182 155.661 200.692 124.167 205.148L115.965 240.119C115.949 240.119 147.775 250.011 188.672 191.463Z" fill="#000870"/>
<path d="M324.21 284.571C323.467 295.348 322.203 319.763 322.409 324.077C322.44 324.788 322.503 326.653 322.567 329.276H290.156C289.982 325.389 289.903 321.738 289.966 318.562C290.535 294.037 295.845 257.881 295.845 257.881L321.113 257.264C321.113 257.264 321.334 258.213 321.65 259.809C322.693 264.865 324.779 276.385 324.21 284.571Z" fill="white" stroke="#000870" stroke-width="0.316" stroke-miterlimit="10"/>
<path d="M342.004 286.957C341.261 297.734 339.981 322.165 340.155 326.479C340.171 326.937 340.202 327.917 340.234 329.276H308.55C308.455 326.305 308.424 323.524 308.487 321.027C308.613 316.034 308.929 310.55 309.356 304.988L300.649 259.998L321.65 259.824L339.033 259.682C339.033 259.682 342.762 276.18 342.004 286.957Z" fill="white" stroke="#000870" stroke-width="0.316" stroke-miterlimit="10"/>
<path d="M366.197 311.356C371.997 304.94 371.27 301.179 371.001 295.854L370.448 291.461L365.96 299.488C364.712 301.732 362.326 302.301 360.572 300.768C358.96 299.346 358.407 296.597 359.292 294.289L364.933 279.498C363.4 274.299 365.565 269.906 365.565 269.906H380.988L380.546 295.159C380.309 303.123 378.27 310.629 373.514 315.733L370.812 318.167C369.042 319.763 366.498 319.099 365.439 316.761L365.423 316.745C364.633 314.943 364.965 312.731 366.197 311.356Z" fill="white" stroke="#000870" stroke-width="0.316" stroke-miterlimit="10" stroke-linecap="round" stroke-linejoin="round"/>
<path d="M336.346 196.093C336.346 196.093 320.086 237.796 313.022 244.132C313.022 244.132 298.405 228.093 298.91 197.894L319.122 193.975L336.346 196.093Z" fill="#000870"/>
<path d="M325.064 199.08L324.273 185.221L312.042 187.101L312.169 190.357L312.485 198.495L317.352 200.85L325.064 199.08Z" fill="white" stroke="#000870" stroke-width="0.316" stroke-miterlimit="10" stroke-linecap="round" stroke-linejoin="round"/>
<path d="M330.958 195.429L321.745 203.599L317.352 200.85L324.716 194.481L330.958 195.429Z" fill="#06C66C"/>
<path d="M307.001 196.298L312.911 202.872L317.352 200.85L312.358 195.271L307.001 196.298Z" fill="#06C66C"/>
<path d="M312.295 237.495C312.295 237.495 298.895 217.063 303.224 197.025C303.224 197.025 299.637 197.168 289.998 198.574C288.244 198.827 286.948 200.328 286.948 202.098L287.043 285.077C287.09 286.42 288.18 287.51 289.54 287.542L345.86 288.585C347.187 288.616 348.325 287.637 348.483 286.309L352.291 203.789C352.623 201.324 350.98 199.032 348.546 198.542C343.189 197.468 337.8 195.919 332.996 195.809C332.981 195.809 319.959 228.551 312.295 237.495Z" fill="#06C66C"/>
<path d="M383.454 286.594L359.07 286.483C359.07 286.483 363.637 258.623 341.988 235.299L347.171 198.274C347.171 198.274 382 200.849 383.454 286.594Z" fill="#06C66C"/>
<path d="M270.987 311.356C265.188 304.94 265.915 301.179 266.183 295.854L266.737 291.461L271.224 299.488C272.473 301.732 274.859 302.301 276.613 300.768C278.225 299.346 278.778 296.597 277.893 294.289L272.252 279.498C273.784 274.299 271.62 269.906 271.62 269.906H256.196L256.639 295.159C256.876 303.123 258.914 310.629 263.671 315.733L266.373 318.167C268.143 319.763 270.687 319.099 271.746 316.761L271.762 316.745C272.568 314.943 272.236 312.731 270.987 311.356Z" fill="white" stroke="#000870" stroke-width="0.316" stroke-miterlimit="10" stroke-linecap="round" stroke-linejoin="round"/>
<path d="M253.747 286.594L278.13 286.483C278.13 286.483 273.563 258.623 295.213 235.299L290.077 198.558C290.077 198.574 255.201 200.849 253.747 286.594Z" fill="#06C66C"/>
<path d="M316.578 170.24C317.241 168.818 327.181 168.692 328.54 167.822C329.757 167.032 330.895 166.463 332.222 166.858C334.087 167.427 335.414 170.351 335.461 173.179C335.493 175.708 335.303 179.579 334.308 182.945C331.59 192.237 324.89 192.885 324.89 192.885C321.65 192.901 321.081 189.614 320.212 188.46C320.212 188.476 315.914 171.662 316.578 170.24Z" fill="#000870"/>
<path d="M328.982 181.381C328.05 188.713 321.255 194.971 316.562 193.659C309.846 191.795 309.893 186.659 309.53 179.279C309.04 169.087 315.139 166.511 319.943 167.127C324.779 167.759 329.931 174.064 328.982 181.381Z" fill="white" stroke="#000870" stroke-width="0.316" stroke-miterlimit="10" stroke-linecap="round" stroke-linejoin="round"/>
<path d="M308.408 164.362C311.742 164.362 316.388 160.711 322.741 160.332C330.768 159.842 332.617 167.001 332.617 167.001C332.617 167.001 331.068 170.43 323.91 171.884C316.751 173.337 307.586 173.875 304.552 169.529C304.552 169.529 301.881 165.405 305.737 161.754C305.737 161.754 305.927 164.346 308.408 164.362Z" fill="#000870"/>
<path d="M332.909 182.358C333.248 179.489 331.668 176.944 329.38 176.674C327.092 176.403 324.962 178.51 324.623 181.378C324.284 184.247 325.864 186.792 328.152 187.063C330.44 187.333 332.57 185.227 332.909 182.358Z" fill="white"/>
<path d="M329.899 179.5C329.899 179.5 327.434 180.369 327.513 183.087C327.513 183.087 329.314 182.266 330.152 184.352" stroke="#000870" stroke-width="0.316" stroke-miterlimit="10" stroke-linecap="round" stroke-linejoin="round"/>
</g>
<defs>
<clipPath id="clip0_73_425">
<rect width="423" height="328.709" fill="white"/>
</clipPath>
</defs>
</svg>
