<svg width="109" height="115" viewBox="0 0 109 115" fill="none" xmlns="http://www.w3.org/2000/svg">
<path opacity="0.2" fill-rule="evenodd" clip-rule="evenodd" d="M36.5 0C16.3416 0 0 16.3416 0 36.5C0 56.6584 16.3416 73 36.5 73C56.6584 73 73 56.6584 73 36.5C73 16.3416 56.6584 0 36.5 0ZM87 73C75.402 73 66 82.402 66 94C66 105.598 75.402 115 87 115H88C99.598 115 109 105.598 109 94C109 82.402 99.598 73 88 73H87Z" fill="#F7B500"/>
<path d="M23.9471 52.6484C23.4831 51.8448 23.7585 50.8173 24.562 50.3533L63.5967 27.8166C64.4003 27.3527 65.4278 27.628 65.8918 28.4316L85.3136 62.0713C86.1859 63.582 85.6682 65.5139 84.1575 66.3861C82.6467 67.2584 80.7148 66.7408 79.8426 65.23L62.6288 35.4148L31.6262 53.3142L48.84 83.1293C49.7122 84.6401 49.1946 86.572 47.6838 87.4442C46.173 88.3165 44.2412 87.7988 43.3689 86.288L23.9471 52.6484Z" fill="#F7B500"/>
<path fill-rule="evenodd" clip-rule="evenodd" d="M54.0281 51.3923C52.6588 51.0728 51.3257 51.8907 51 53.2853L47.8147 66.9246L47.7798 67.0992C47.5469 68.4978 48.4149 69.9229 49.7855 70.3381L49.9567 70.384C51.326 70.7035 52.6591 69.8855 52.9848 68.491L54.7611 60.8858L65.2169 78.9958L65.3001 79.1314C66.0777 80.3236 67.5987 80.7469 68.77 80.0707C69.9847 79.3694 70.3634 77.7511 69.6157 76.4561L59.3194 58.6223L66.3754 60.7599L66.5467 60.8058C67.916 61.1252 69.2491 60.3073 69.5748 58.9127C69.914 57.4601 69.0317 55.9318 67.604 55.4993L54.1993 51.4381L54.0281 51.3923Z" fill="#F7B500"/>
</svg>
