<svg width="64" height="56" viewBox="0 0 64 56" fill="none" xmlns="http://www.w3.org/2000/svg">
<g clip-path="url(#clip0_22_252)">
<path d="M42.0742 0C31.7883 0 23.1973 7.12489 21.0703 16.6411C18.9932 15.4455 16.5838 14.7575 14.0081 14.7575C6.28122 14.7412 0 20.9324 0 28.5651C0 36.1977 5.78271 41.8649 13.0942 42.3399H31.2898V33.8883C31.2898 28.1884 37.9366 24.0608 47.0759 24.0608C53.9055 24.0608 59.3559 26.3703 61.649 29.9245C62.8787 27.2548 63.5766 24.3229 63.5766 21.1945C63.5766 9.48347 53.9554 0 42.0742 0Z" fill="#172740"/>
<path d="M47.0759 28.1556C40.6451 28.1556 35.444 30.7271 35.444 33.8883V39.3425L35.8927 39.8994C37.222 41.5373 41.2932 43.3226 47.0759 43.3226C52.8586 43.3226 57.0794 41.5373 58.3589 39.7684L58.7078 39.277V33.8719C58.7078 30.7107 53.5067 28.1392 47.0759 28.1392V28.1556ZM47.0759 36.3451C43.4036 36.3451 40.4291 35.2477 40.4291 33.8883C40.4291 32.5288 43.4036 31.4314 47.0759 31.4314C50.7483 31.4314 53.7227 32.5288 53.7227 33.8883C53.7227 35.2477 50.7483 36.3451 47.0759 36.3451ZM35.444 44.7476V50.1199C35.444 50.1199 35.444 50.1691 35.444 50.1854C35.444 50.2182 35.444 50.251 35.444 50.2837C35.444 53.4449 40.6451 56.0164 47.0759 56.0164C53.5067 56.0164 58.7078 53.4449 58.7078 50.2837C58.7078 50.251 58.7078 50.2182 58.7078 50.1854C58.7078 50.1691 58.7078 50.1363 58.7078 50.1199V44.7312C55.8165 46.4183 51.6622 47.4338 47.0759 47.4338C42.4896 47.4338 38.3354 46.4346 35.444 44.7476Z" fill="#172740"/>
</g>
<defs>
<clipPath id="clip0_22_252">
<rect width="63.5932" height="56" fill="white"/>
</clipPath>
</defs>
</svg>
