<svg width="1277" height="667" viewBox="0 0 1277 667" fill="none" xmlns="http://www.w3.org/2000/svg">
<g clip-path="url(#clip0_34_705)">
<g clip-path="url(#clip1_34_705)">
<mask id="mask0_34_705" style="mask-type:luminance" maskUnits="userSpaceOnUse" x="0" y="0" width="1277" height="667">
<rect width="1277" height="667" transform="matrix(-1 0 0 1 1277 0)" fill="white"/>
</mask>
<g mask="url(#mask0_34_705)">
<g style="mix-blend-mode:multiply">
<rect width="1600" height="1600" transform="matrix(-1 0 0 1 1438 -636)" fill="#F5F6F8"/>
<mask id="mask1_34_705" style="mask-type:luminance" maskUnits="userSpaceOnUse" x="-162" y="-636" width="1600" height="1600">
<rect width="1600" height="1600" transform="matrix(-1 0 0 1 1438 -636)" fill="white"/>
</mask>
<g mask="url(#mask1_34_705)">
<path opacity="0.12" fill-rule="evenodd" clip-rule="evenodd" d="M165.944 916.689L58.8541 937.646L62.9851 962.095H43.6008L-3.11218 695.693L-13.9165 962.095H-32.983L-29.4875 872.236L-78.4249 870.966L-83.5094 962.095H-93.0426L-87.9583 870.648L-161.364 868.743V849.692L-100.987 851.279L-96.5382 819.209L-161.682 821.115V811.589L-95.2671 809.684L-86.3694 747.132L-125.774 703.948L-162 726.81V715.379L-132.447 696.645L-162 663.94V649.652L-84.4628 735.066C-80.3318 711.251 -70.1628 651.24 -65.714 625.838L-162 642.349V622.98L-114.016 614.724L-125.456 543.282C-138.167 545.822 -150.56 548.362 -162 550.902V531.216L-134.671 525.5L-162 490.573V459.455L-113.698 521.055L-51.0963 508.036L-77.7894 321.015L-162 336.256V303.869L-153.102 302.281L-162 241.952V110.18L-152.149 176.86L-62.5361 155.268C-66.985 131.771 -79.0605 69.2193 -83.5094 45.405L-162 60.0111V40.6422L-111.474 31.1165L-151.196 -185.434L-162 -183.529V-215.917L-135.942 -220.68L-142.933 -269.578L-162 -273.706V-283.549L-144.204 -279.739L-159.776 -387.697L-162 -387.379V-628.379L-156.28 -588.372L-96.2205 -584.561L-93.3605 -636H-83.8271L-86.6871 -583.926L-35.843 -580.751L-33.6187 -636H-14.5521L-16.7765 -579.481L53.7697 -575.036L42.9653 -635.682H62.3496L72.8362 -576.623L179.291 -604.883L173.571 -635.682H205.984L216.789 -576.941L289.877 -564.557L298.775 -635.682H318.159L308.943 -561.382L380.443 -549.316L411.267 -611.868C393.154 -617.266 362.33 -626.157 329.281 -635.682H397.921L419.847 -629.332L423.025 -635.682H458.616L450.989 -620.441C462.111 -617.266 477.047 -613.138 491.982 -609.011C494.207 -615.361 497.702 -624.887 501.198 -635.682H511.366L501.198 -606.47C518.993 -601.39 534.882 -596.945 541.237 -595.357L587.315 -609.646L584.455 -635.682H593.988L596.53 -612.821L655.637 -631.237L654.048 -636H674.385L682.012 -615.043L732.538 -636H750.334L765.905 -595.675L838.357 -620.759C835.497 -625.839 832.638 -630.92 829.778 -636H852.022C862.826 -617.584 874.584 -599.802 886.977 -583.926L895.557 -636H914.941L912.399 -621.394L960.701 -592.817L986.123 -636H997.245L937.503 -534.71C938.775 -533.757 940.363 -532.805 941.635 -531.852C960.701 -519.469 985.488 -510.261 1014.09 -503.275L1004.55 -636H1014.09L1023.94 -501.053C1034.43 -498.83 1045.23 -496.925 1056.35 -495.02L1066.84 -635.682H1086.22L1082.73 -588.054L1198.08 -602.025L1199.03 -635.682H1218.1L1217.46 -604.248L1244.16 -607.423L1272.76 -635.365H1286.42L1259.73 -609.328L1356.97 -621.076L1355.06 -635.365H1364.59L1366.18 -622.029L1404.63 -626.792L1403.36 -635.365H1435.78L1437.05 -627.427V-386.427L1354.11 -371.186L1339.81 -302.601L1437.05 -282.279V-272.436L1407.81 -278.469L1398.6 -207.661L1437.05 -214.964V-182.577L1394.78 -174.639L1426.88 43.4999L1437.05 41.5948V60.9637L1429.74 62.2338L1437.05 111.132V242.905L1410.99 65.7266L1320.42 82.5553L1344.26 321.333L1436.73 304.822V337.209L1351.88 352.45L1436.73 460.726V491.843L1352.52 384.52L1375.72 545.187L1437.05 532.486V552.172C1412.26 557.253 1391.6 561.698 1378.58 564.238L1388.43 632.506L1437.05 624.25V643.619L1431.33 644.572L1437.05 650.922V665.211L1420.2 646.477L1391.29 651.557L1403.68 738.241L1437.36 716.967V728.398L1405.27 748.719L1414.48 813.812L1437.05 813.176V822.702L1415.76 823.337L1419.57 850.644L1437.05 851.279V870.331L1422.43 870.013L1435.78 964H1403.36L1390.02 871.601L1353.47 876.364L1364.28 963.682H1354.74L1347.12 903.671L1286.1 963.682H1272.44L1345.85 891.922L1343.94 877.634L1219.69 894.145L1218.1 963.682H1199.03L1200.62 896.685L1090.04 911.291L1086.22 963.682H1066.84L1068.74 936.693L1011.55 926.85L1014.09 963.682H1004.55L1003.6 952.569L996.927 963.682H985.805L1002.33 935.74L1001.69 925.262L923.204 911.926L914.624 963.682H895.239L922.25 801.428L785.607 811.906C800.542 857.63 822.469 913.831 851.386 963.682H829.142C817.384 942.408 806.898 920.499 797.364 898.908L733.809 923.04L749.698 963.682H731.903L738.258 961.142L706.481 879.539L648.01 893.192L673.75 963.682H653.412L604.792 830.005L578.417 826.512L593.67 963.682H584.137L578.099 908.751L534.564 897.003L511.049 963.682H500.88C509.778 938.281 520.9 906.528 525.349 894.462L496.113 886.524L458.298 963.682H422.707L438.914 930.343L311.486 890.97L318.477 940.821L397.285 963.682H328.646C325.15 962.73 321.654 961.777 317.841 960.507L317.523 963.682H298.139L299.092 955.109C260.006 943.679 221.237 932.565 198.04 925.897L205.031 963.682H172.618L165.944 916.689ZM183.104 833.815L283.521 820.162L273.353 749.354L170.711 766.818L183.104 833.815ZM397.603 708.711L390.612 669.973L284.157 689.977L289.559 727.128L397.603 708.711ZM292.101 746.179L296.55 776.344L367.096 766.183L360.105 734.748L292.101 746.179ZM648.328 708.076L695.676 706.806L688.367 666.163L648.328 685.532C648.963 689.342 649.281 692.835 649.281 696.645C649.281 700.456 648.963 704.266 648.328 708.076ZM633.71 740.464C631.168 743.639 628.308 746.497 625.448 749.037L661.357 796.665L695.359 738.876L633.71 740.464ZM635.934 655.685L727.136 611.867L627.99 575.669L613.055 635.363C622.27 640.444 629.897 647.429 635.934 655.685ZM1267.99 554.395L1256.23 528.04L1110.69 493.43L1131.66 566.143L1267.99 554.395ZM1136.11 584.877L1145.96 634.728L1181.56 625.838L1179.01 581.384L1136.11 584.877ZM1339.17 -472.793C1306.76 -470.253 1269.26 -468.348 1229.86 -467.713L1230.17 -458.187L1343.94 -422.942L1339.17 -472.793ZM1378.26 -495.655L1367.45 -556.302L1262.91 -543.283C1263.86 -532.17 1266.72 -503.275 1268.31 -488.352C1310.25 -489.939 1348.39 -492.797 1378.26 -495.655ZM1130.71 -367.693L1118.32 -257.195C1146.92 -254.019 1232.4 -244.176 1262.91 -240.366L1249.56 -356.262L1130.71 -367.693ZM1230.49 -448.026L1233.35 -376.901L1257.5 -374.678L1279.75 -378.806L1286.1 -430.88L1230.49 -448.026ZM1117.05 -247.669L1112.6 -207.661L1268.63 -188.61L1263.86 -230.523L1117.05 -247.669ZM459.251 -255.29L477.047 -192.737L550.135 -164.478C560.939 -194.325 569.202 -223.537 573.968 -241.001L459.251 -255.29ZM559.351 -315.936L503.422 -322.604L497.067 -282.914L554.584 -275.929L559.351 -315.936ZM281.297 91.1284L348.983 75.2522L315.299 -30.1655L257.146 -19.3698C261.277 -0.000793457 271.764 47.3102 281.297 91.1284ZM247.613 -17.7821L176.113 -4.44611L269.539 82.5553L247.613 -17.7821ZM885.706 4.12701L775.12 -6.35126L763.045 41.5948L895.557 45.405L885.706 4.12701ZM885.706 -79.0641L784.653 -43.819L779.887 -25.0851L877.444 -15.877L885.706 -79.0641ZM382.35 75.2523L400.463 131.771L479.271 100.654L458.298 47.9453L382.35 75.2523ZM454.802 38.7371L436.689 -6.98633C409.678 8.57233 383.303 22.2258 368.05 29.8464L379.49 66.0441L454.802 38.7371ZM506.282 116.53L543.462 85.0955L498.973 21.9083L475.458 38.7371L506.282 116.53ZM510.095 125.738L512.002 130.184L605.11 138.122L651.823 75.8873L605.428 44.77L510.095 125.738ZM614.643 141.932L693.452 187.338L711.565 116.213L660.085 81.6027C651.188 93.0336 623.859 129.231 614.643 141.932ZM657.861 68.5842C661.992 63.5038 669.301 53.9781 674.703 47.3102L635.934 19.3681L613.055 38.737L657.861 68.5842ZM665.805 73.9821L713.789 106.052L720.463 80.0151L682.647 52.7081L665.805 73.9821ZM717.603 221.313L802.131 196.229L738.576 138.122L717.603 221.313ZM812.935 193.053L922.25 160.666L897.781 55.2483L760.82 51.1205L741.436 127.326L812.935 193.053ZM931.466 -10.7966L946.401 -137.488L903.501 -143.839L886.659 -14.9244L931.466 -10.7966ZM932.419 8.57233L895.557 5.07959L913.353 80.9677L949.897 69.2193L932.419 8.57233ZM915.577 90.4933L931.466 157.808L971.823 145.742L952.757 78.4275L915.577 90.4933ZM926.064 179.4L978.179 320.698L1016.95 304.504L976.908 164.159L926.064 179.4ZM916.848 182.258L866.957 197.181L888.566 261.321C902.866 256.876 929.241 248.62 940.046 245.445L916.848 182.258ZM873.313 276.245C863.462 279.737 846.62 285.453 826.6 292.438L858.377 364.516L901.277 359.436L873.313 276.245ZM870.135 267.036L848.526 202.262L774.485 224.171L792.28 294.026L870.135 267.036ZM765.269 227.028L712.201 242.905L690.274 329.906L783.382 297.201L765.269 227.028ZM690.592 196.864L649.599 173.367L629.579 244.81L682.012 231.474L690.592 196.864ZM641.337 168.287L606.064 147.965L516.133 140.344L564.435 261.321L619.092 247.35L641.337 168.287ZM522.171 207.659L478.953 221.948L494.524 279.102L545.368 266.084L522.171 207.659ZM518.675 198.769L483.084 109.227L403.641 140.662L431.605 227.663L518.675 198.769ZM400.145 234.649L319.748 248.938L387.116 361.341L428.745 323.555L400.145 234.649ZM390.294 204.167L351.843 84.4604L283.204 100.654C290.195 132.089 296.232 160.666 299.41 174.319L359.152 209.882L390.294 204.167ZM274.941 107.64L246.342 142.567L287.97 167.334L274.941 107.64ZM362.012 11.4301C394.107 -4.76367 466.242 -43.184 499.927 -71.7611C501.515 -73.0312 503.104 -74.6188 504.693 -76.2064L427.474 -142.251L340.721 -54.6148L362.012 11.4301ZM478.636 -123.835L503.74 -172.098L473.869 -183.529L441.138 -155.587L478.636 -123.835ZM485.944 -117.484L516.133 -91.765C527.255 -108.911 537.424 -132.09 546.64 -155.905L512.955 -168.923L485.944 -117.484ZM512.32 -57.155C497.384 -44.454 475.776 -30.1655 453.214 -16.8295L471.644 29.5289L560.622 -34.9283L519.629 -64.458C517.086 -61.9178 514.862 -59.3776 512.32 -57.155ZM506.6 16.1929L550.771 78.745L627.672 13.3352L568.884 -28.8954L506.6 16.1929ZM623.859 -13.0193L641.019 -69.856L598.437 -90.1774L580.641 -43.819L623.859 -13.0193ZM643.879 -79.3816L657.543 -124.787L627.355 -165.748L601.932 -99.3856L643.879 -79.3816ZM640.383 -1.27094L725.547 60.0111L756.371 -61.6003L664.216 -79.3817L640.383 -1.27094ZM758.278 -71.126L794.504 -214.329L707.752 -224.807L666.759 -88.5898L758.278 -71.126ZM787.196 -54.9323L886.977 -89.8599L894.286 -145.109L812.935 -157.175L787.196 -54.9323ZM947.672 -147.014L953.392 -194.96L826.6 -210.519L815.478 -166.701L947.672 -147.014ZM959.112 -226.395L968.645 -267.673L833.273 -261.322L828.189 -242.271L959.112 -226.395ZM952.121 -21.5924L1043.32 -126.058L1047.14 -183.529L972.459 -192.737L952.121 -21.5924ZM1050.63 -215.282L1057.3 -256.56C1031.57 -260.37 1002.65 -265.133 988.03 -267.038L977.861 -224.172L1050.63 -215.282ZM1056.67 -182.259L1053.17 -128.598L1093.53 -124.787L1092.26 -178.131L1056.67 -182.259ZM1050 -119.072L953.71 -8.57391L1097.03 5.07959L1093.85 -114.627C1080.82 -116.214 1057.62 -118.437 1050 -119.072ZM953.074 10.4775L1032.2 288.31L1070.97 266.719L988.665 13.9702L953.074 10.4775ZM1022.03 323.238L923.204 364.516L934.326 397.538L1030.93 353.403L1022.03 323.238ZM969.281 324.508L943.541 254.018L891.744 270.212L917.166 346.417L969.281 324.508ZM904.455 368.961L860.92 374.042L870.771 438.816L917.166 407.064L904.455 368.961ZM850.751 371.184L817.702 295.613C791.644 304.822 761.774 315.3 735.716 324.19L764.634 472.156L801.496 486.127L862.191 444.532L850.751 371.184ZM704.574 469.934L688.367 528.041L756.689 556.618L787.831 501.686L704.574 469.934ZM753.829 468.346L726.183 327.683C710.612 333.081 696.947 337.844 687.096 341.337L663.581 434.054L753.829 468.346ZM676.61 252.43L569.837 279.737L597.484 316.252L656.272 333.081L676.61 252.43ZM559.668 282.277L458.933 307.997L571.426 365.151L589.221 321.015L559.668 282.277ZM485.309 281.642L470.056 225.123L434.465 236.872L451.625 290.216L485.309 281.642ZM431.923 334.034L341.674 415.637L348.348 428.338C394.107 419.448 433.829 411.827 455.438 407.699L431.923 334.034ZM379.807 368.326L309.579 251.16L260.641 260.051L337.225 407.064L379.807 368.326ZM250.791 261.638L235.219 264.496L265.408 444.532C289.877 439.769 314.663 435.006 338.497 430.561L250.791 261.638ZM245.388 382.932L166.58 401.666L176.113 461.678C199.946 457.233 227.593 451.835 256.193 446.437L245.388 382.932ZM233.313 470.251L179.609 480.412L203.442 579.479L247.613 570.589L233.313 470.251ZM170.393 482.317L120.185 491.843L138.616 592.498L193.909 581.384L170.393 482.317ZM166.58 463.583L157.047 403.254L104.614 407.382L116.689 473.109C128.447 470.886 145.607 467.394 166.58 463.583ZM155.458 393.728L149.102 353.403L96.0337 360.706L103.025 397.856L155.458 393.728ZM147.513 343.877L137.662 281.96L83.3228 291.803L94.1271 351.18L147.513 343.877ZM164.991 392.141L243.799 373.407L225.686 266.084L147.196 280.055L164.991 392.141ZM330.234 214.962L233.948 157.808L162.767 245.127L330.234 214.962ZM225.686 152.728L100.483 78.4275L72.5183 112.402L198.04 186.385L225.686 152.728ZM238.079 137.487L271.128 97.1614L165.627 -1.27087L112.876 63.1863L238.079 137.487ZM161.496 -71.4435L236.491 -81.2867C234.266 -95.5753 232.042 -108.911 230.771 -115.579L156.729 -100.656L161.496 -71.4435ZM163.084 -62.2354L169.44 -22.8625L244.117 -36.8335C242.846 -45.4066 240.622 -58.7426 238.397 -72.3961L163.084 -62.2354ZM253.333 -38.4211L308.943 -48.8994L284.157 -126.693L240.304 -117.802L253.333 -38.4211ZM334.048 -75.5714L412.538 -154.952L350.89 -207.661L299.728 -181.624L334.048 -75.5714ZM433.829 -162.255L467.513 -190.832L448.765 -256.56L334.048 -270.531C332.459 -264.498 330.234 -258.782 327.057 -253.702L433.829 -162.255ZM478 -285.137L493.253 -382.616L428.109 -392.777L412.856 -293.075L478 -285.137ZM531.069 -79.6991L572.379 -49.8519L620.363 -174.639L587.315 -219.409C576.51 -180.989 556.173 -117.802 531.069 -79.6991ZM661.039 -136.218L688.685 -227.348L593.035 -239.096C592.399 -236.873 591.764 -234.333 591.128 -231.475L661.039 -136.218ZM676.292 -261.005L707.116 -257.195L759.549 -341.338L675.974 -354.357L676.292 -261.005ZM717.603 -255.925L797.682 -246.081L765.905 -333.4L717.603 -255.925ZM812.935 -260.37L855.835 -426.117L764.316 -393.73L812.935 -260.37ZM835.815 -271.483L910.175 -274.976L930.195 -387.062L867.275 -393.095L835.815 -271.483ZM920.026 -275.294L970.87 -277.516L995.021 -380.394L939.728 -385.792L920.026 -275.294ZM990.254 -276.564L1058.58 -266.085L1065.25 -307.363L999.47 -316.254L990.254 -276.564ZM1060.16 -214.012L1093.53 -209.884L1097.98 -249.892C1090.35 -251.162 1079.23 -252.749 1066.52 -254.654L1060.16 -214.012ZM1097.34 24.131L998.834 14.9228L1049.04 168.604L1100.52 147.33L1097.34 24.131ZM1051.9 177.812L1079.87 263.544L1103.38 259.733L1100.84 157.808L1051.9 177.812ZM1083.04 272.752L1105.61 341.972L1103.7 269.259C1097.03 270.212 1088.45 271.799 1083.04 272.752ZM1073.83 275.927L1034.74 297.836L1076.37 443.897L1107.83 428.656L1106.56 375.629L1073.83 275.927ZM1033.15 362.611L937.186 406.429L967.057 495.971L1058.58 451.835L1033.15 362.611ZM920.344 416.59L812.3 490.573L905.408 526.135L949.897 504.544L920.344 416.59ZM908.268 560.11L822.786 601.388L845.031 642.666L920.979 626.473L908.268 560.11ZM881.575 537.566L797.047 505.179L765.587 560.11L802.449 575.351L881.575 537.566ZM685.507 537.566L673.114 582.337L739.211 606.469L791.009 581.702L685.507 537.566ZM695.359 466.441L659.132 452.47L630.532 566.143L664.216 578.527L695.359 466.441ZM654.048 342.289L597.484 326.096L543.144 460.09L618.457 483.587L654.048 342.289ZM567.613 374.042L460.84 319.745L517.722 496.923L567.613 374.042ZM461.476 426.433L370.274 443.897L387.752 542.329L491.982 521.372L461.476 426.433ZM372.181 565.191L269.221 586.147L277.166 642.031L376.63 590.593L372.181 565.191ZM369.003 546.139L351.525 447.39L252.379 466.441L266.679 566.778L369.003 546.139ZM250.473 589.64L142.111 611.549L152.916 669.656L259.053 648.699L250.473 589.64ZM129.718 721.095L83.3228 727.128L97.6227 800.793L143.382 795.078L129.718 721.095ZM128.129 711.569L106.838 595.673L59.4896 603.929L81.7339 717.602L128.129 711.569ZM103.343 576.939L88.725 498.193C73.7896 501.369 49.0031 506.449 19.7677 512.482L36.9276 588.37L103.343 576.939ZM85.5471 479.459L67.7517 382.297L-46.6475 398.173L-31.3943 503.909L85.5471 479.459ZM71.2472 261.321L148.467 247.35L192.32 194.006L66.7983 120.023L48.0496 142.885L71.2472 261.321ZM30.2543 151.775L-49.1896 171.144C-44.7407 193.688 -33.3009 251.16 -27.8987 279.102L52.1808 264.814L30.2543 151.775ZM43.283 118.118L137.662 2.85693L25.1698 24.131L43.283 118.118ZM150.691 -19.0522L131.942 -136.853L-2.47668 -117.484L21.3564 5.39709L150.691 -19.0522ZM78.5562 -148.602L67.434 -227.348L-20.9076 -210.836L-6.28992 -136.218L78.5562 -148.602ZM71.8828 -260.687L108.109 -267.355L96.6693 -332.765L60.1251 -328.955L71.8828 -260.687ZM76.9673 -229.253C80.145 -207.344 85.5471 -167.971 88.0894 -150.189L128.765 -156.222L115.736 -236.873L76.9673 -229.253ZM127.176 -271.166L196.451 -284.184C196.451 -285.454 196.451 -287.042 196.451 -288.312C196.451 -298.155 198.675 -307.681 202.171 -316.254L136.709 -355.627L118.914 -317.207L127.176 -271.166ZM134.485 -240.048L155.14 -110.499L280.979 -135.901L253.968 -219.727C233.313 -223.22 215.517 -235.921 205.349 -253.702L134.485 -240.048ZM266.361 -250.527C287.335 -250.527 304.495 -267.673 304.495 -288.63C304.495 -309.586 287.335 -326.732 266.361 -326.732C245.388 -326.732 228.228 -309.586 228.228 -288.63C228.228 -267.673 245.388 -250.527 266.361 -250.527ZM287.335 -221.632L297.186 -190.832L343.263 -214.329L315.299 -238.143C307.672 -230.84 298.139 -225.125 287.335 -221.632ZM335.001 -302.601L403.323 -294.345L418.894 -394.365L346.123 -405.796L314.028 -340.386C324.197 -330.225 331.823 -317.207 335.001 -302.601ZM509.142 -399.763L513.909 -437.865L374.723 -464.22L354.703 -423.577L509.142 -399.763ZM512.32 -379.759L505.011 -332.13L560.622 -325.462L566.024 -371.503L512.32 -379.759ZM564.117 -274.658L666.441 -262.275V-355.944L575.239 -370.233L564.117 -274.658ZM663.263 -375.631L630.532 -493.115L590.175 -477.873L613.372 -383.569L663.263 -375.631ZM673.432 -374.043L755.418 -361.342L697.901 -518.834L639.112 -496.607L673.432 -374.043ZM761.138 -402.62L808.169 -419.132L791.644 -478.508L741.118 -457.552L761.138 -402.62ZM817.067 -422.307L858.695 -436.913L879.033 -514.706L800.224 -482.001L817.067 -422.307ZM872.042 -411.511L1003.28 -399.128L1009.32 -441.676L886.342 -466.125L872.042 -411.511ZM1001.69 -325.462L1066.84 -316.572L1075.74 -372.773L1014.09 -378.806L1001.69 -325.462ZM1074.78 -305.776L1068.11 -264.498L1098.93 -259.735L1103.7 -301.965L1074.78 -305.776ZM1104.97 -311.491L1111.33 -369.598L1085.27 -372.138L1076.37 -315.619L1104.97 -311.491ZM1111.33 -175.591L1112.6 -122.882C1127.85 -121.612 1158.68 -118.755 1171.07 -117.802L1169.16 -168.923L1111.33 -175.591ZM1190.77 137.804L1192.36 180.987C1203.16 180.67 1228.9 179.717 1239.71 179.4L1237.8 134.629L1190.77 137.804ZM1234.31 115.26L1186.96 38.7371L1190.14 118.435L1234.31 115.26ZM1193 190.513L1194.9 241.952C1210.47 238.777 1227 235.602 1242.25 232.744L1240.34 188.926L1193 190.513ZM1195.54 251.478L1203.48 315.617L1253.69 302.599L1243.52 241.952L1195.54 251.478ZM1198.4 352.133L1170.43 359.118L1173.29 397.221L1202.21 383.25L1198.4 352.133ZM1197.13 342.289L1186.32 253.065L1162.81 257.511L1169.48 348.957L1197.13 342.289ZM1153.27 259.733L1122.77 265.766L1126.58 419.448L1163.76 401.666L1153.27 259.733ZM1185.37 243.857L1183.46 191.148C1171.07 191.783 1137.7 193.688 1121.18 194.641L1122.77 256.241C1135.48 253.7 1158.99 248.938 1185.37 243.857ZM1182.83 181.305L1181.24 138.439L1119.59 142.885L1120.54 185.115L1182.83 181.305ZM1180.6 119.07L1176.79 25.0836L1116.41 20.6382L1118.95 123.198L1180.6 119.07ZM1176.47 15.5579L1174.88 -22.2274L1115.46 -20.6398L1116.41 11.1125L1176.47 15.5579ZM1174.25 -41.2789L1171.7 -107.959L1113.23 -113.039L1115.14 -39.6912L1174.25 -41.2789ZM1266.08 -156.857L1179.01 -167.336L1180.92 -117.167L1269.9 -118.119L1266.08 -156.857ZM1181.24 -107.641L1183.78 -41.5963L1277.21 -44.1365L1270.85 -108.594L1181.24 -107.641ZM1184.42 -22.2275L1186 19.3681L1216.51 68.9017L1280.38 -11.7492L1279.11 -24.7676L1184.42 -22.2275ZM1222.23 77.4749L1245.43 114.625L1293.09 111.132L1281.97 1.90436L1222.23 77.4749ZM1247.33 133.677L1251.78 230.521C1272.76 226.393 1291.51 222.583 1303.58 220.36L1294.68 130.184L1247.33 133.677ZM1308.98 -48.5818L1347.43 -53.9797L1328.37 -163.843L1297.86 -158.127L1308.98 -48.5818ZM1304.85 229.886L1253.05 240.047L1271.49 349.592L1315.02 328.636L1304.85 229.886ZM1255.28 312.125L1204.75 325.143L1211.43 378.487L1262.27 354.038L1255.28 312.125ZM1206.66 416.59L1103.06 466.441L1107.83 482.952L1251.78 517.245L1206.66 416.59ZM1094.17 470.569L1043.32 495.018L1065.57 571.541L1121.5 566.778L1094.17 470.569ZM1025.85 503.591L981.992 524.548L1014.09 658.543L1069.38 652.827L1025.85 503.591ZM949.579 675.054L954.346 699.503L1082.09 696.01L1072.24 662.353L949.579 675.054ZM1004.55 659.495L973.094 528.993L926.064 551.855L947.99 665.846L1004.55 659.495ZM922.568 635.998L786.56 665.211L791.327 703.948L934.643 699.821L922.568 635.998ZM835.18 644.889L813.889 605.516L766.54 628.378L783.382 656.002L835.18 644.889ZM776.709 662.988L758.278 632.506L697.583 661.718L705.527 706.489L782.111 704.266L776.709 662.988ZM579.37 658.543C558.397 658.543 541.237 675.689 541.237 696.645C541.237 717.602 558.397 734.748 579.37 734.748C600.344 734.748 617.503 717.602 617.503 696.645C617.186 675.689 600.344 658.543 579.37 658.543ZM560.304 629.33C566.342 627.743 572.697 626.79 579.37 626.79C580.324 626.79 581.277 626.79 582.23 626.79L615.915 492.795L539.331 468.981L522.171 511.529L560.304 629.33ZM497.702 539.789L390.929 561.38L392.518 570.906L522.171 656.002C525.031 652.192 527.891 648.699 531.386 645.524L497.702 539.789ZM395.061 583.607L416.669 705.219L509.778 689.342C510.731 680.134 513.273 671.561 517.404 663.94L395.061 583.607ZM369.321 732.843L376.63 764.595L462.111 752.212L445.587 719.825L369.321 732.843ZM389.023 660.13L378.536 600.436L278.755 651.875L282.886 680.134L389.023 660.13ZM167.215 747.767L270.493 730.303L260.324 658.225L154.822 678.864L167.215 747.767ZM118.278 906.211L162.131 897.638L144.971 804.286L99.5293 810.001L118.278 906.211ZM55.3585 918.594L99.5293 910.021L71.5651 766.5L30.2543 775.709L55.3585 918.594ZM28.6654 765.865L69.6584 756.657L40.4231 606.786L1.65442 613.454L28.6654 765.865ZM-91.4539 851.279L-28.8521 852.867L-27.2632 811.589L-78.1073 755.705C-80.9673 777.614 -88.2761 829.37 -91.4539 851.279ZM-76.2006 743.639L-26.6276 798.253L-19.3187 617.582L-55.5452 623.615L-76.2006 743.639ZM-106.389 538.519L-94.9493 610.597L27.3943 589.64L10.2344 514.069C-25.6742 522.008 -67.3029 530.581 -106.389 538.519ZM-48.5541 388.648L65.5273 372.772L51.5452 297.519L-59.0406 317.205L-48.5541 388.648ZM-86.0516 289.58L-37.432 281.007L-47.2831 230.521L-94.9493 240.047L-86.0516 289.58ZM-134.036 298.154L-95.585 291.168L-104.8 241.952L-141.345 249.255L-134.036 298.154ZM-148.971 194.959L-142.298 239.412L-48.8719 220.678L-58.4053 173.049L-148.971 194.959ZM-53.0029 152.093L26.4409 132.724L5.78552 27.6237L-73.9762 42.5473L-53.0029 152.093ZM-101.623 28.2588L2.28992 8.57239L-15.1877 -80.3342L-118.147 -59.6951L-101.623 28.2588ZM-154.691 -579.481L-143.569 -502.64L-100.669 -503.275L-96.856 -575.988L-154.691 -579.481ZM-100.034 -484.224L-140.709 -483.589L-118.782 -331.813H-86.0516L-100.034 -484.224ZM-85.0984 -321.969H-117.511L-103.847 -227.665L-76.8362 -232.745L-85.0984 -321.969ZM-67.6206 -234.651L-49.5074 -238.143L-39.3386 -485.176L-90.5005 -484.224L-67.6206 -234.651ZM-87.005 -575.353L-90.8184 -503.275L-38.7031 -504.228L-35.8431 -572.178L-87.005 -575.353ZM-39.6565 -207.344L-141.345 -188.292L-119.418 -68.9033L-16.7766 -89.5424L-39.6565 -207.344ZM-30.123 -241.636L62.3496 -259.1C58.8541 -280.056 52.4985 -315.619 50.2742 -328.002L-27.2631 -319.747L-30.123 -241.636ZM-26.6276 -329.59L95.0804 -342.608L85.865 -394.365L-24.0854 -395.317L-26.6276 -329.59ZM55.994 -566.78L-16.4589 -571.225L-19.3188 -499.783L67.7517 -500.418L55.994 -566.78ZM69.0228 -490.892L-20.2721 -490.257L-23.7677 -405.161L83.9583 -404.208L69.0228 -490.892ZM181.515 -596.945L75.0605 -568.685L86.5005 -503.275L192.955 -534.71L181.515 -596.945ZM88.0894 -493.75L113.194 -350.229L194.226 -525.184L88.0894 -493.75ZM200.582 -493.115L140.84 -364.518L206.62 -324.827C212.022 -333.4 219.013 -341.021 227.593 -346.736L200.582 -493.115ZM219.331 -568.368L258.099 -357.85C260.324 -358.167 262.548 -358.167 265.09 -358.167L289.559 -556.302L219.331 -568.368ZM308.626 -553.126L284.157 -355.944C284.792 -355.944 285.11 -355.627 285.746 -355.627L377.265 -541.696L308.626 -553.126ZM443.362 -604.248L378.854 -473.111L442.409 -461.045L486.58 -592.182L443.362 -604.248ZM495.795 -589.642C486.58 -562.652 459.251 -480.731 451.942 -459.139L514.862 -447.391L531.704 -579.798L495.795 -589.642ZM527.891 -396.905L602.886 -385.157L580.959 -474.381L535.517 -457.234L527.891 -396.905ZM537.106 -468.03L627.354 -502.323L606.064 -548.999L544.415 -526.454L537.106 -468.03ZM592.399 -592.499L551.088 -579.798L545.686 -537.25L602.568 -557.889L592.399 -592.499ZM663.263 -614.408L601.297 -595.039L612.737 -556.302L635.935 -505.498L694.723 -527.725L663.263 -614.408ZM743.66 -630.92L686.461 -607.105L698.854 -573.448L758.278 -594.087L743.66 -630.92ZM764.316 -575.671L705.527 -555.349L737.94 -466.76L789.102 -488.034L764.316 -575.671ZM849.797 -605.2L773.214 -578.846L797.682 -491.527L881.893 -526.454L889.202 -554.079C874.902 -569.638 861.873 -586.784 849.797 -605.2ZM957.523 -585.831L912.399 -612.503L904.773 -566.145C913.353 -556.937 922.25 -548.999 931.466 -541.696L957.523 -585.831ZM932.737 -516.929C923.204 -523.279 913.67 -530.582 904.773 -538.52L888.248 -475.016L1010.27 -450.884L1015.04 -484.859C982.945 -492.479 954.663 -502.958 932.737 -516.929ZM1024.89 -482.954L1013.13 -398.175L1140.88 -386.109L1147.24 -468.983C1104.34 -470.57 1062.39 -475.016 1024.89 -482.954ZM1082.73 -569.955L1077.01 -493.75C1115.14 -488.987 1156.13 -487.082 1196.49 -487.082L1198.71 -584.244L1082.73 -569.955ZM1156.45 -468.348L1150.1 -384.839L1223.82 -377.854L1220.01 -467.395C1199.35 -467.395 1177.74 -467.713 1156.45 -468.348ZM1247.97 -589.959L1218.42 -586.466L1217.46 -547.093L1252.42 -551.539C1251.47 -560.112 1249.24 -578.528 1247.97 -589.959ZM1217.15 -537.568L1215.87 -487.082C1230.49 -487.082 1244.79 -487.399 1258.77 -488.034L1253.37 -542.013L1217.15 -537.568ZM1409.08 -609.646L1257.5 -591.229L1261.95 -552.809L1414.48 -571.86L1409.08 -609.646ZM1415.76 -562.335L1376.99 -557.572L1387.79 -496.607C1403.04 -498.195 1415.44 -499.465 1424.65 -500.418L1415.76 -562.335ZM1356.33 -392.777L1438 -407.701L1427.51 -481.366C1410.99 -479.461 1383.34 -476.286 1348.71 -473.746L1356.33 -392.777ZM1344.89 -412.781L1295.95 -428.022L1289.92 -380.711L1346.8 -391.19L1344.89 -412.781ZM1345.53 -371.186L1268.94 -357.215L1288.33 -188.61L1308.35 -192.42L1345.53 -371.186ZM1399.87 -282.597L1339.49 -295.297L1318.52 -194.325L1390.02 -207.661L1399.87 -282.597ZM1409.72 45.0875L1377.62 -173.051L1337.9 -165.748L1375.72 51.1205L1409.72 45.0875ZM1366.18 53.0256L1349.02 -44.7716L1309.62 -39.3737L1319.79 61.5987L1366.18 53.0256ZM1319.15 362.293L1223.82 408.017L1288.33 552.49L1345.53 547.727L1319.15 362.293ZM1348.39 566.778L1197.76 579.479L1200.3 623.932L1358.24 636.316L1348.39 566.778ZM1200.94 633.776L1204.43 692.2L1243.84 690.93V636.951L1200.94 633.776ZM1359.83 646.477L1253.37 638.221V691.247L1365.86 688.072L1359.83 646.477ZM1302.95 862.075L1389.06 850.644L1376.03 760.15L1294.37 771.263L1302.95 862.075ZM1374.76 750.624L1370.31 719.825L1289.92 722.047L1293.41 761.738L1374.76 750.624ZM1264.18 867.155L1293.41 863.345L1285.15 772.533L1254.96 776.661L1264.18 867.155ZM1254.01 767.135L1284.2 763.008L1280.38 722.047L1249.56 723L1254.01 767.135ZM1211.11 874.458L1245.11 870.013L1235.89 778.884L1204.75 780.789L1211.11 874.458ZM1234.94 769.041L1230.17 723.635L1104.97 727.128L1101.48 776.661L1234.94 769.041ZM1201.57 875.729L1194.9 781.107L1100.52 786.505L1092.9 890.335L1201.57 875.729ZM1101.79 695.375L1185.05 693.153L1181.87 635.681L1091.31 658.86L1101.79 695.375ZM1136.43 637.268L1126.26 585.83L1070.97 590.593L1088.13 649.652L1136.43 637.268ZM1085.9 727.763L954.981 731.573L949.261 765.23L1082.09 776.661L1085.9 727.763ZM1081.46 785.869L947.672 774.439L939.41 823.337L1077.64 838.261L1081.46 785.869ZM1071.29 925.262L1076.37 857.63L936.55 842.389L927.017 900.495L1071.29 925.262ZM925.746 789.68L935.279 731.891L765.905 736.653C769.718 751.259 775.756 773.804 784.336 800.476L925.746 789.68ZM732.22 912.244L795.458 888.112C791.645 878.586 787.831 869.06 784.336 859.852L717.921 875.411L732.22 912.244ZM777.662 841.754C761.456 796.348 751.287 757.61 746.52 737.288L706.798 738.558L668.03 804.921L708.387 857.947L777.662 841.754ZM643.243 873.188L697.901 860.487L660.403 811.271L625.766 825.56L643.243 873.188ZM622.27 816.352L654.365 803.016L617.821 755.07C613.055 758.245 608.288 760.468 602.886 762.373L622.27 816.352ZM602.568 817.939L583.819 766.183C582.23 766.183 580.959 766.183 579.37 766.183C571.744 766.183 564.117 764.913 557.126 762.69L534.564 808.731L602.568 817.939ZM578.099 896.685L569.837 823.337L529.797 817.939L501.515 875.729L578.099 896.685ZM500.244 806.191L529.797 745.862C519.946 736.018 512.955 723 510.413 708.711L455.756 717.919L500.244 806.191ZM444.316 919.864L461.158 885.889L405.229 870.013L396.014 904.941L444.316 919.864ZM311.168 878.586L386.798 902.083L395.696 867.155L305.766 841.436L311.168 878.586ZM302.906 820.797L469.738 868.426L494.842 816.987L466.56 761.42L297.821 785.87L302.906 820.797ZM299.728 933.2L286.381 839.213L239.351 845.564L250.473 918.912L299.728 933.2ZM195.815 903.036L239.986 915.736L229.5 846.834L186.6 852.549L195.815 903.036Z" fill="#244ADC"/>
</g>
</g>
<path fill-rule="evenodd" clip-rule="evenodd" d="M1027.44 197.356C1043.73 197.356 1056.9 210.528 1056.9 226.815C1056.9 248.908 1027.44 281.523 1027.44 281.523C1027.44 281.523 997.986 248.908 997.986 226.815C997.986 210.528 1011.16 197.356 1027.44 197.356ZM1027.44 237.335C1033.25 237.335 1037.97 232.622 1037.97 226.815C1037.97 221.007 1033.25 216.294 1027.44 216.294C1021.64 216.294 1016.92 221.007 1016.92 226.815C1016.92 232.622 1021.64 237.335 1027.44 237.335Z" fill="#244ADC"/>
<mask id="mask2_34_705" style="mask-type:luminance" maskUnits="userSpaceOnUse" x="997" y="197" width="60" height="85">
<path fill-rule="evenodd" clip-rule="evenodd" d="M1027.44 197.356C1043.73 197.356 1056.9 210.528 1056.9 226.815C1056.9 248.908 1027.44 281.523 1027.44 281.523C1027.44 281.523 997.986 248.908 997.986 226.815C997.986 210.528 1011.16 197.356 1027.44 197.356ZM1027.44 237.335C1033.25 237.335 1037.97 232.622 1037.97 226.815C1037.97 221.007 1033.25 216.294 1027.44 216.294C1021.64 216.294 1016.92 221.007 1016.92 226.815C1016.92 232.622 1021.64 237.335 1027.44 237.335Z" fill="white"/>
</mask>
<g mask="url(#mask2_34_705)">
</g>
</g>
</g>
</g>
<defs>
<clipPath id="clip0_34_705">
<rect width="1277" height="667" fill="white" transform="matrix(-1 0 0 1 1277 0)"/>
</clipPath>
<clipPath id="clip1_34_705">
<rect width="1277" height="667" fill="white" transform="matrix(-1 0 0 1 1277 0)"/>
</clipPath>
</defs>
</svg>
