<svg width="349" height="332" viewBox="0 0 349 332" fill="none" xmlns="http://www.w3.org/2000/svg">
<g clip-path="url(#clip0_162_1918)">
<g clip-path="url(#clip1_162_1918)">
<mask id="mask0_162_1918" style="mask-type:luminance" maskUnits="userSpaceOnUse" x="0" y="0" width="349" height="332">
<rect width="349" height="332" transform="matrix(-1 0 0 1 349 0)" fill="white"/>
</mask>
<g mask="url(#mask0_162_1918)">
<g style="mix-blend-mode:multiply">
<rect width="1600" height="1600" transform="matrix(-1 0 0 1 974 -804)" fill="#F5F6F8"/>
<mask id="mask1_162_1918" style="mask-type:luminance" maskUnits="userSpaceOnUse" x="-626" y="-804" width="1600" height="1600">
<rect width="1600" height="1600" transform="matrix(-1 0 0 1 974 -804)" fill="white"/>
</mask>
<g mask="url(#mask1_162_1918)">
<path opacity="0.12" fill-rule="evenodd" clip-rule="evenodd" d="M-298.056 748.689L-405.146 769.646L-401.015 794.095H-420.399L-467.112 527.693L-477.917 794.095H-496.983L-493.488 704.236L-542.425 702.966L-547.509 794.095H-557.043L-551.958 702.648L-625.364 700.743V681.692L-564.987 683.279L-560.538 651.209L-625.682 653.115V643.589L-559.267 641.684L-550.369 579.132L-589.774 535.948L-626 558.81V547.379L-596.447 528.645L-626 495.94V481.652L-548.463 567.066C-544.332 543.251 -534.163 483.24 -529.714 457.838L-626 474.349V454.98L-578.016 446.724L-589.456 375.282C-602.167 377.822 -614.56 380.362 -626 382.902V363.216L-598.671 357.5L-626 322.573V291.455L-577.698 353.055L-515.096 340.036L-541.789 153.015L-626 168.256V135.869L-617.102 134.281L-626 73.952V-57.8202L-616.149 8.85968L-526.536 -12.7319C-530.985 -36.2286 -543.061 -98.7807 -547.509 -122.595L-626 -107.989V-127.358L-575.474 -136.883L-615.196 -353.434L-626 -351.529V-383.917L-599.942 -388.68L-606.933 -437.578L-626 -441.706V-451.549L-608.204 -447.739L-623.776 -555.697L-626 -555.379V-796.379L-620.28 -756.372L-560.22 -752.561L-557.36 -804H-547.827L-550.687 -751.926L-499.843 -748.751L-497.619 -804H-478.552L-480.776 -747.481L-410.23 -743.036L-421.035 -803.682H-401.65L-391.164 -744.623L-284.709 -772.883L-290.429 -803.682H-258.016L-247.211 -744.941L-174.123 -732.557L-165.225 -803.682H-145.841L-155.057 -729.382L-83.557 -717.316L-52.7328 -779.868C-70.8461 -785.266 -101.67 -794.157 -134.719 -803.682H-66.0793L-44.153 -797.332L-40.9752 -803.682H-5.38434L-13.0109 -788.441C-1.88879 -785.266 13.0467 -781.138 27.9821 -777.011C30.2065 -783.361 33.7021 -792.887 37.1976 -803.682H47.3665L37.1976 -774.47C54.993 -769.39 70.8818 -764.945 77.2373 -763.357L123.315 -777.646L120.455 -803.682H129.988L132.53 -780.821L191.637 -799.237L190.048 -804H210.385L218.012 -783.043L268.538 -804H286.334L301.905 -763.675L374.357 -788.759C371.497 -793.839 368.638 -798.92 365.778 -804H388.022C398.826 -785.584 410.584 -767.802 422.977 -751.926L431.557 -804H450.941L448.399 -789.394L496.701 -760.817L522.123 -804H533.245L473.503 -702.71C474.775 -701.757 476.363 -700.805 477.635 -699.852C496.701 -687.469 521.488 -678.261 550.087 -671.275L540.554 -804H550.087L559.938 -669.053C570.425 -666.83 581.229 -664.925 592.352 -663.02L602.838 -803.682H622.222L618.727 -756.054L734.079 -770.025L735.033 -803.682H754.099L753.464 -772.248L780.157 -775.423L808.757 -803.365H822.421L795.728 -777.328L892.967 -789.076L891.061 -803.365H900.594L902.183 -790.029L940.634 -794.792L939.362 -803.365H971.776L973.047 -795.427V-554.427L890.107 -539.186L875.807 -470.601L973.047 -450.279V-440.436L943.811 -446.469L934.596 -375.661L973.047 -382.964V-350.577L930.783 -342.639L962.878 -124.5L973.047 -126.405V-107.036L965.738 -105.766L973.047 -56.8676V74.9045L946.989 -102.273L856.423 -85.4447L880.256 153.333L972.729 136.822V169.209L887.883 184.45L972.729 292.726V323.843L888.518 216.52L911.716 377.187L973.047 364.486V384.172C948.26 389.253 927.605 393.698 914.576 396.238L924.427 464.506L973.047 456.25V475.619L967.327 476.572L973.047 482.922V497.211L956.205 478.477L927.287 483.557L939.68 570.241L973.364 548.967V560.398L941.269 580.719L950.485 645.812L973.047 645.176V654.702L951.756 655.337L955.569 682.644L973.047 683.279V702.331L958.429 702.013L971.776 796H939.362L926.016 703.601L889.472 708.364L900.276 795.682H890.743L883.116 735.671L822.103 795.682H808.439L881.845 723.922L879.938 709.634L755.688 726.145L754.099 795.682H735.033L736.622 728.685L626.036 743.291L622.222 795.682H602.838L604.745 768.693L547.545 758.85L550.087 795.682H540.554L539.601 784.569L532.927 795.682H521.805L538.33 767.74L537.694 757.262L459.204 743.926L450.624 795.682H431.239L458.25 633.428L321.607 643.906C336.542 689.63 358.469 745.831 387.386 795.682H365.142C353.384 774.408 342.898 752.499 333.364 730.908L269.809 755.04L285.698 795.682H267.903L274.258 793.142L242.481 711.539L184.01 725.192L209.75 795.682H189.412L140.792 662.005L114.417 658.512L129.67 795.682H120.137L114.099 740.751L70.564 729.003L47.0486 795.682H36.8798C45.7775 770.281 56.8997 738.528 61.3486 726.462L32.1132 718.524L-5.70209 795.682H-41.293L-25.0864 762.343L-152.514 722.97L-145.523 772.821L-66.715 795.682H-135.354C-138.85 794.73 -142.346 793.777 -146.159 792.507L-146.477 795.682H-165.861L-164.908 787.109C-203.994 775.679 -242.763 764.565 -265.96 757.897L-258.969 795.682H-291.382L-298.056 748.689ZM-280.896 665.815L-180.479 652.162L-190.647 581.354L-293.289 598.818L-280.896 665.815ZM-66.3972 540.711L-73.3883 501.973L-179.843 521.977L-174.441 559.128L-66.3972 540.711ZM-171.899 578.179L-167.45 608.344L-96.9037 598.183L-103.895 566.748L-171.899 578.179ZM184.327 540.076L231.676 538.806L224.367 498.163L184.327 517.532C184.963 521.342 185.281 524.835 185.281 528.645C185.281 532.456 184.963 536.266 184.327 540.076ZM169.71 572.464C167.168 575.639 164.308 578.497 161.448 581.037L197.357 628.665L231.359 570.876L169.71 572.464ZM171.934 487.685L263.136 443.867L163.99 407.669L149.054 467.363C158.27 472.444 165.896 479.429 171.934 487.685ZM803.99 386.395L792.232 360.04L646.691 325.43L667.664 398.143L803.99 386.395ZM672.113 416.877L681.964 466.728L717.555 457.838L715.012 413.384L672.113 416.877ZM875.172 -640.793C842.759 -638.253 805.261 -636.348 765.857 -635.713L766.175 -626.187L879.938 -590.942L875.172 -640.793ZM914.258 -663.655L903.453 -724.302L798.905 -711.283C799.859 -700.17 802.719 -671.275 804.307 -656.352C846.254 -657.939 884.387 -660.797 914.258 -663.655ZM666.711 -535.693L654.317 -425.195C682.917 -422.019 768.399 -412.176 798.905 -408.366L785.559 -524.262L666.711 -535.693ZM766.493 -616.026L769.353 -544.901L793.504 -542.678L815.748 -546.806L822.104 -598.88L766.493 -616.026ZM653.047 -415.669L648.598 -375.661L804.626 -356.61L799.859 -398.523L653.047 -415.669ZM-4.74921 -423.29L13.0462 -360.737L86.1346 -332.478C96.939 -362.325 105.201 -391.537 109.968 -409.001L-4.74921 -423.29ZM95.3505 -483.936L39.422 -490.604L33.0665 -450.914L90.5839 -443.929L95.3505 -483.936ZM-182.703 -76.8716L-115.017 -92.7478L-148.701 -198.166L-206.854 -187.37C-202.723 -168.001 -192.236 -120.69 -182.703 -76.8716ZM-216.387 -185.782L-287.887 -172.446L-194.461 -85.4447L-216.387 -185.782ZM421.706 -163.873L311.12 -174.351L299.044 -126.405L431.557 -122.595L421.706 -163.873ZM421.706 -247.064L320.653 -211.819L315.887 -193.085L413.444 -183.877L421.706 -247.064ZM-81.65 -92.7477L-63.5369 -36.2286L15.2715 -67.3459L-5.70172 -120.055L-81.65 -92.7477ZM-9.19727 -129.263L-27.3105 -174.986C-54.3214 -159.428 -80.6968 -145.774 -95.95 -138.154L-84.5101 -101.956L-9.19727 -129.263ZM42.282 -51.4697L79.4618 -82.9045L34.9732 -146.092L11.4578 -129.263L42.282 -51.4697ZM46.0953 -42.2615L48.002 -37.8162L141.11 -29.8781L187.823 -92.1127L141.428 -123.23L46.0953 -42.2615ZM150.644 -26.0679L229.452 19.338L247.565 -51.7872L196.086 -86.3973C187.188 -74.9664 159.859 -38.7688 150.644 -26.0679ZM193.861 -99.4158C197.992 -104.496 205.301 -114.022 210.703 -120.69L171.934 -148.632L149.055 -129.263L193.861 -99.4158ZM201.805 -94.0179L249.789 -61.948L256.463 -87.9849L218.647 -115.292L201.805 -94.0179ZM253.603 53.3129L338.131 28.2286L274.576 -29.8782L253.603 53.3129ZM348.935 25.0534L458.25 -7.33398L433.781 -112.752L296.82 -116.88L277.436 -40.674L348.935 25.0534ZM467.466 -178.797L482.401 -305.488L439.501 -311.839L422.659 -182.924L467.466 -178.797ZM468.419 -159.428L431.557 -162.92L449.352 -87.0323L485.896 -98.7807L468.419 -159.428ZM451.577 -77.5067L467.466 -10.1917L507.823 -22.2576L488.757 -89.5725L451.577 -77.5067ZM462.064 11.3999L514.179 152.698L552.947 136.504L512.908 -3.84125L462.064 11.3999ZM452.848 14.2576L402.957 29.1812L424.566 93.3209C438.866 88.8755 465.241 80.6199 476.046 77.4447L452.848 14.2576ZM409.313 108.245C399.462 111.737 382.62 117.453 362.6 124.438L394.378 196.516L437.277 191.436L409.313 108.245ZM406.135 99.0363L384.526 34.2615L310.484 56.1707L328.28 126.026L406.135 99.0363ZM301.27 59.0284L248.201 74.9045L226.275 161.906L319.383 129.201L301.27 59.0284ZM226.592 28.8636L185.599 5.36694L165.579 76.8097L218.012 63.4737L226.592 28.8636ZM177.337 0.28656L142.064 -20.035L52.1334 -27.6555L100.435 93.3209L155.093 79.3499L177.337 0.28656ZM58.1705 39.6595L14.9531 53.9481L30.524 111.102L81.3682 98.0838L58.1705 39.6595ZM54.6758 30.7688L19.0849 -58.7728L-60.359 -27.338L-32.3947 59.6635L54.6758 30.7688ZM-63.8547 66.6489L-144.252 80.9375L-76.8835 193.341L-35.2549 155.555L-63.8547 66.6489ZM-73.7061 36.1667L-112.157 -83.5396L-180.796 -67.3459C-173.805 -35.9111 -167.768 -7.33398 -164.59 6.31946L-104.848 41.8821L-73.7061 36.1667ZM-189.058 -60.3604L-217.658 -25.4329L-176.029 -0.666016L-189.058 -60.3604ZM-101.988 -156.57C-69.8927 -172.764 2.24231 -211.184 35.9265 -239.761C37.5154 -241.031 39.1043 -242.619 40.6932 -244.206L-36.5263 -310.251L-123.279 -222.615L-101.988 -156.57ZM14.636 -291.835L39.7402 -340.098L9.86932 -351.529L-22.8616 -323.587L14.636 -291.835ZM21.9444 -285.484L52.1331 -259.765C63.2552 -276.911 73.424 -300.09 82.6395 -323.905L48.9553 -336.923L21.9444 -285.484ZM48.3202 -225.155C33.3847 -212.454 11.776 -198.165 -10.7861 -184.83L7.6449 -138.471L96.6221 -202.928L55.629 -232.458C53.0868 -229.918 50.8624 -227.378 48.3202 -225.155ZM42.5994 -151.807L86.7702 -89.255L163.672 -154.665L104.883 -196.895L42.5994 -151.807ZM159.859 -181.019L177.019 -237.856L134.437 -258.177L116.641 -211.819L159.859 -181.019ZM179.879 -247.382L193.543 -292.787L163.354 -333.748L137.932 -267.386L179.879 -247.382ZM176.383 -169.271L261.547 -107.989L292.371 -229.6L200.216 -247.382L176.383 -169.271ZM294.278 -239.126L330.505 -382.329L243.752 -392.807L202.759 -256.59L294.278 -239.126ZM323.196 -222.932L422.977 -257.86L430.286 -313.109L348.935 -325.175L323.196 -222.932ZM483.673 -315.014L489.393 -362.96L362.6 -378.519L351.478 -334.701L483.673 -315.014ZM495.112 -394.395L504.645 -435.673L369.273 -429.322L364.189 -410.271L495.112 -394.395ZM488.121 -189.592L579.322 -294.058L583.136 -351.529L508.458 -360.737L488.121 -189.592ZM586.632 -383.282L593.305 -424.56C567.565 -428.37 538.647 -433.133 524.03 -435.038L513.861 -392.172L586.632 -383.282ZM592.669 -350.259L589.174 -296.598L629.531 -292.787L628.26 -346.131L592.669 -350.259ZM585.996 -287.072L489.71 -176.574L633.026 -162.92L629.849 -282.627C616.82 -284.214 593.622 -286.437 585.996 -287.072ZM489.074 -157.523L568.2 120.31L606.969 98.7188L524.665 -154.03L489.074 -157.523ZM558.032 155.238L459.204 196.516L470.326 229.538L566.93 185.403L558.032 155.238ZM505.281 156.508L479.541 86.0179L427.744 102.212L453.166 178.417L505.281 156.508ZM440.455 200.961L396.92 206.042L406.771 270.816L453.166 239.064L440.455 200.961ZM386.75 203.184L353.702 127.613C327.644 136.822 297.773 147.3 271.716 156.19L300.633 304.156L337.495 318.127L398.19 276.532L386.75 203.184ZM240.574 301.934L224.367 360.041L292.689 388.618L323.831 333.686L240.574 301.934ZM289.829 300.346L262.183 159.683C246.612 165.081 232.947 169.844 223.096 173.337L199.581 266.054L289.829 300.346ZM212.609 84.4302L105.837 111.737L133.483 148.252L192.272 165.081L212.609 84.4302ZM95.6686 114.277L-5.06628 139.997L107.426 197.151L125.222 153.015L95.6686 114.277ZM21.3086 113.642L6.05536 57.1232L-29.5355 68.8716L-12.3756 122.216L21.3086 113.642ZM-32.0779 166.034L-122.326 247.637L-115.653 260.338C-69.8932 251.448 -30.1713 243.827 -8.5625 239.699L-32.0779 166.034ZM-84.1926 200.326L-154.421 83.1602L-203.359 92.0508L-126.775 239.064L-84.1926 200.326ZM-213.21 93.6384L-228.781 96.4962L-198.592 276.532C-174.124 271.769 -149.337 267.006 -125.504 262.561L-213.21 93.6384ZM-218.612 214.932L-297.42 233.666L-287.887 293.678C-264.054 289.233 -236.407 283.835 -207.807 278.437L-218.612 214.932ZM-230.687 302.251L-284.391 312.412L-260.558 411.479L-216.387 402.589L-230.687 302.251ZM-293.607 314.317L-343.815 323.843L-325.384 424.498L-270.091 413.384L-293.607 314.317ZM-297.42 295.583L-306.953 235.254L-359.386 239.382L-347.311 305.109C-335.553 302.886 -318.393 299.394 -297.42 295.583ZM-308.542 225.728L-314.898 185.403L-367.966 192.706L-360.975 229.856L-308.542 225.728ZM-316.487 175.877L-326.338 113.96L-380.677 123.803L-369.873 183.18L-316.487 175.877ZM-299.009 224.141L-220.201 205.407L-238.314 98.0837L-316.804 112.055L-299.009 224.141ZM-133.766 46.9625L-230.052 -10.1917L-301.233 77.1272L-133.766 46.9625ZM-238.314 -15.272L-363.517 -89.5725L-391.482 -55.5975L-265.96 18.3854L-238.314 -15.272ZM-225.921 -30.5132L-192.872 -70.8386L-298.373 -169.271L-351.124 -104.814L-225.921 -30.5132ZM-302.504 -239.444L-227.509 -249.287C-229.734 -263.575 -231.958 -276.911 -233.229 -283.579L-307.271 -268.656L-302.504 -239.444ZM-300.916 -230.235L-294.56 -190.862L-219.883 -204.833C-221.154 -213.407 -223.378 -226.743 -225.603 -240.396L-300.916 -230.235ZM-210.667 -206.421L-155.057 -216.899L-179.843 -294.693L-223.696 -285.802L-210.667 -206.421ZM-129.952 -243.571L-51.4618 -322.952L-113.11 -375.661L-164.272 -349.624L-129.952 -243.571ZM-30.1705 -330.255L3.51367 -358.832L-15.2351 -424.56L-129.952 -438.531C-131.541 -432.498 -133.765 -426.782 -136.943 -421.702L-30.1705 -330.255ZM13.9997 -453.137L29.2529 -550.616L-35.8911 -560.777L-51.1443 -461.075L13.9997 -453.137ZM67.0685 -247.699L108.379 -217.852L156.363 -342.639L123.315 -387.409C112.51 -348.989 92.1728 -285.802 67.0685 -247.699ZM197.039 -304.218L224.686 -395.347L129.035 -407.096C128.4 -404.873 127.764 -402.333 127.128 -399.475L197.039 -304.218ZM212.292 -429.005L243.116 -425.195L295.549 -509.338L211.974 -522.357L212.292 -429.005ZM253.603 -423.925L333.683 -414.081L301.905 -501.4L253.603 -423.925ZM348.935 -428.37L391.835 -594.117L300.316 -561.73L348.935 -428.37ZM371.815 -439.483L446.174 -442.976L466.194 -555.062L403.275 -561.095L371.815 -439.483ZM456.025 -443.294L506.87 -445.516L531.021 -548.394L475.728 -553.792L456.025 -443.294ZM526.254 -444.564L594.576 -434.085L601.249 -475.363L535.469 -484.254L526.254 -444.564ZM596.165 -382.012L629.532 -377.884L633.98 -417.892C626.354 -419.162 615.232 -420.749 602.521 -422.654L596.165 -382.012ZM633.345 -143.869L534.834 -153.077L585.043 0.604065L636.522 -20.67L633.345 -143.869ZM587.903 9.81226L615.867 95.5436L639.383 91.7333L636.841 -10.1917L587.903 9.81226ZM619.044 104.752L641.606 173.972L639.7 101.259C633.027 102.212 624.447 103.799 619.044 104.752ZM609.829 107.927L570.743 129.836L612.371 275.897L643.831 260.656L642.56 207.629L609.829 107.927ZM569.154 194.611L473.186 238.429L503.057 327.971L594.576 283.835L569.154 194.611ZM456.343 248.59L348.3 322.573L441.408 358.135L485.896 336.544L456.343 248.59ZM444.268 392.11L358.787 433.388L381.031 474.666L456.979 458.473L444.268 392.11ZM417.575 369.566L333.047 337.179L301.587 392.11L338.449 407.351L417.575 369.566ZM221.507 369.566L209.114 414.337L275.211 438.469L327.009 413.702L221.507 369.566ZM231.359 298.441L195.132 284.47L166.532 398.143L200.216 410.527L231.359 298.441ZM190.048 174.289L133.484 158.096L79.144 292.09L154.457 315.587L190.048 174.289ZM103.612 206.042L-3.16028 151.745L53.7216 328.923L103.612 206.042ZM-2.52405 258.433L-93.7256 275.897L-76.2479 374.329L27.9824 353.372L-2.52405 258.433ZM-91.8192 397.191L-194.779 418.147L-186.834 474.031L-87.3704 422.593L-91.8192 397.191ZM-94.9971 378.139L-112.475 279.39L-211.621 298.441L-197.321 398.778L-94.9971 378.139ZM-213.527 421.64L-321.889 443.549L-311.084 501.656L-204.947 480.699L-213.527 421.64ZM-334.282 553.095L-380.677 559.128L-366.377 632.793L-320.618 627.078L-334.282 553.095ZM-335.871 543.569L-357.162 427.673L-404.51 435.929L-382.266 549.602L-335.871 543.569ZM-360.657 408.939L-375.275 330.193C-390.21 333.369 -414.997 338.449 -444.232 344.482L-427.072 420.37L-360.657 408.939ZM-378.453 311.459L-396.248 214.297L-510.647 230.173L-495.394 335.909L-378.453 311.459ZM-392.753 93.3209L-315.533 79.3499L-271.68 26.0059L-397.202 -47.977L-415.95 -25.1153L-392.753 93.3209ZM-433.746 -16.2247L-513.19 3.14423C-508.741 25.6884 -497.301 83.1602 -491.899 111.102L-411.819 96.8136L-433.746 -16.2247ZM-420.717 -49.8821L-326.338 -165.143L-438.83 -143.869L-420.717 -49.8821ZM-313.309 -187.052L-332.058 -304.853L-466.477 -285.484L-442.644 -162.603L-313.309 -187.052ZM-385.444 -316.602L-396.566 -395.348L-484.908 -378.836L-470.29 -304.218L-385.444 -316.602ZM-392.117 -428.687L-355.891 -435.355L-367.331 -500.765L-403.875 -496.955L-392.117 -428.687ZM-387.033 -397.253C-383.855 -375.344 -378.453 -335.971 -375.911 -318.189L-335.235 -324.222L-348.264 -404.873L-387.033 -397.253ZM-336.824 -439.166L-267.549 -452.184C-267.549 -453.454 -267.549 -455.042 -267.549 -456.312C-267.549 -466.155 -265.325 -475.681 -261.829 -484.254L-327.291 -523.627L-345.086 -485.207L-336.824 -439.166ZM-329.515 -408.048L-308.86 -278.499L-183.021 -303.901L-210.032 -387.727C-230.687 -391.22 -248.483 -403.921 -258.651 -421.702L-329.515 -408.048ZM-197.639 -418.527C-176.665 -418.527 -159.505 -435.673 -159.505 -456.63C-159.505 -477.586 -176.665 -494.732 -197.639 -494.732C-218.612 -494.732 -235.772 -477.586 -235.772 -456.63C-235.772 -435.673 -218.612 -418.527 -197.639 -418.527ZM-176.665 -389.632L-166.814 -358.832L-120.736 -382.329L-148.701 -406.143C-156.327 -398.84 -165.86 -393.125 -176.665 -389.632ZM-128.999 -470.601L-60.6772 -462.345L-45.1063 -562.365L-117.877 -573.796L-149.972 -508.386C-139.803 -498.225 -132.177 -485.207 -128.999 -470.601ZM45.1415 -567.763L49.9082 -605.865L-89.2775 -632.22L-109.297 -591.577L45.1415 -567.763ZM48.3193 -547.759L41.0105 -500.13L96.6213 -493.462L102.023 -539.503L48.3193 -547.759ZM100.118 -442.658L202.441 -430.275V-523.944L111.24 -538.233L100.118 -442.658ZM199.264 -543.631L166.533 -661.115L126.175 -645.873L149.373 -551.569L199.264 -543.631ZM209.432 -542.043L291.418 -529.342L233.901 -686.834L175.112 -664.607L209.432 -542.043ZM297.138 -570.62L344.169 -587.132L327.644 -646.508L277.118 -625.552L297.138 -570.62ZM353.067 -590.307L394.696 -604.913L415.033 -682.706L336.225 -650.001L353.067 -590.307ZM408.041 -579.511L539.283 -567.128L545.32 -609.676L422.341 -634.125L408.041 -579.511ZM537.695 -493.462L602.839 -484.572L611.736 -540.773L550.088 -546.806L537.695 -493.462ZM610.783 -473.776L604.109 -432.498L634.933 -427.735L639.7 -469.965L610.783 -473.776ZM640.972 -479.491L647.327 -537.598L621.27 -540.138L612.372 -483.619L640.972 -479.491ZM647.327 -343.591L648.598 -290.882C663.851 -289.612 694.675 -286.755 707.069 -285.802L705.162 -336.923L647.327 -343.591ZM726.771 -30.1957L728.359 12.9875C739.164 12.67 764.904 11.7174 775.708 11.3999L773.801 -33.3709L726.771 -30.1957ZM770.306 -52.7398L722.957 -129.263L726.135 -49.5646L770.306 -52.7398ZM728.995 22.5132L730.901 73.952C746.472 70.7767 762.997 67.6015 778.25 64.7438L776.343 20.9256L728.995 22.5132ZM731.538 83.4777L739.482 147.617L789.69 134.599L779.522 73.952L731.538 83.4777ZM734.398 184.133L706.433 191.118L709.293 229.221L738.211 215.25L734.398 184.133ZM733.126 174.289L722.322 85.0653L698.806 89.5106L705.48 180.957L733.126 174.289ZM689.273 91.7333L658.767 97.7662L662.58 251.448L699.76 233.666L689.273 91.7333ZM721.368 75.8571L719.462 23.1483C707.068 23.7833 673.702 25.6884 657.177 26.641L658.766 88.2405C671.477 85.7003 694.993 80.9375 721.368 75.8571ZM718.826 13.3051L717.237 -29.5606L655.589 -25.1153L656.542 17.1153L718.826 13.3051ZM716.602 -48.9295L712.788 -142.916L652.411 -147.362L654.953 -44.8018L716.602 -48.9295ZM712.471 -152.442L710.882 -190.227L651.458 -188.64L652.411 -156.887L712.471 -152.442ZM710.246 -209.279L707.704 -275.959L649.233 -281.039L651.14 -207.691L710.246 -209.279ZM802.083 -324.857L715.013 -335.336L716.919 -285.167L805.896 -286.119L802.083 -324.857ZM717.237 -275.641L719.779 -209.596L813.205 -212.137L806.85 -276.594L717.237 -275.641ZM720.416 -190.227L722.004 -148.632L752.511 -99.0983L816.384 -179.749L815.113 -192.768L720.416 -190.227ZM758.231 -90.5251L781.428 -53.3749L829.095 -56.8676L817.973 -166.096L758.231 -90.5251ZM783.335 -34.3235L787.784 62.5211C808.757 58.3934 827.505 54.5831 839.581 52.3604L830.683 -37.8162L783.335 -34.3235ZM844.983 -216.582L883.434 -221.98L864.367 -331.843L833.861 -326.127L844.983 -216.582ZM840.852 61.8861L789.054 72.0469L807.485 181.592L851.021 160.636L840.852 61.8861ZM791.279 144.125L740.753 157.143L747.426 210.487L798.271 186.038L791.279 144.125ZM742.659 248.59L639.064 298.441L643.831 314.952L787.783 349.245L742.659 248.59ZM630.166 302.569L579.322 327.018L601.567 403.541L657.495 398.778L630.166 302.569ZM561.845 335.591L517.992 356.548L550.087 490.543L605.38 484.827L561.845 335.591ZM485.579 507.054L490.346 531.503L618.092 528.01L608.241 494.353L485.579 507.054ZM540.554 491.495L509.094 360.993L462.063 383.855L483.99 497.846L540.554 491.495ZM458.568 467.998L322.56 497.211L327.327 535.948L470.643 531.821L458.568 467.998ZM371.18 476.889L349.889 437.516L302.54 460.378L319.382 488.002L371.18 476.889ZM312.709 494.988L294.278 464.506L233.583 493.718L241.527 538.489L318.111 536.266L312.709 494.988ZM115.371 490.543C94.3976 490.543 77.2378 507.689 77.2378 528.645C77.2378 549.602 94.3976 566.748 115.371 566.748C136.344 566.748 153.504 549.602 153.504 528.645C153.186 507.689 136.344 490.543 115.371 490.543ZM96.3043 461.33C102.342 459.743 108.698 458.79 115.371 458.79C116.324 458.79 117.278 458.79 118.231 458.79L151.915 324.795L75.3311 300.981L58.1713 343.529L96.3043 461.33ZM33.7025 371.789L-73.0701 393.38L-71.4812 402.906L58.1712 488.002C61.0312 484.192 63.8912 480.699 67.3867 477.524L33.7025 371.789ZM-68.9395 415.607L-47.3307 537.219L45.7776 521.342C46.7309 512.134 49.2731 503.561 53.4042 495.94L-68.9395 415.607ZM-94.6792 564.843L-87.3704 596.595L-1.88879 584.212L-18.4131 551.825L-94.6792 564.843ZM-74.9772 492.13L-85.4637 432.436L-185.245 483.875L-181.114 512.134L-74.9772 492.13ZM-296.785 579.767L-193.507 562.303L-203.676 490.225L-309.178 510.864L-296.785 579.767ZM-345.722 738.211L-301.869 729.638L-319.029 636.286L-364.471 642.001L-345.722 738.211ZM-408.641 750.594L-364.471 742.021L-392.435 598.5L-433.746 607.709L-408.641 750.594ZM-435.335 597.865L-394.342 588.657L-423.577 438.786L-462.346 445.454L-435.335 597.865ZM-555.454 683.279L-492.852 684.867L-491.263 643.589L-542.107 587.705C-544.967 609.614 -552.276 661.37 -555.454 683.279ZM-540.201 575.639L-490.628 630.253L-483.319 449.582L-519.545 455.615L-540.201 575.639ZM-570.389 370.519L-558.949 442.597L-436.606 421.64L-453.766 346.069C-489.674 354.008 -531.303 362.581 -570.389 370.519ZM-512.554 220.648L-398.473 204.772L-412.455 129.519L-523.041 149.205L-512.554 220.648ZM-550.052 121.58L-501.432 113.007L-511.283 62.5211L-558.949 72.0468L-550.052 121.58ZM-598.036 130.154L-559.585 123.168L-568.8 73.952L-605.345 81.255L-598.036 130.154ZM-612.971 26.9586L-606.298 71.4118L-512.872 52.6779L-522.405 5.04944L-612.971 26.9586ZM-517.003 -15.9072L-437.559 -35.2761L-458.214 -140.376L-537.976 -125.453L-517.003 -15.9072ZM-565.623 -139.741L-461.71 -159.428L-479.188 -248.334L-582.147 -227.695L-565.623 -139.741ZM-618.691 -747.481L-607.569 -670.64L-564.669 -671.275L-560.856 -743.988L-618.691 -747.481ZM-564.034 -652.224L-604.709 -651.589L-582.782 -499.813H-550.052L-564.034 -652.224ZM-549.098 -489.969H-581.511L-567.847 -395.665L-540.836 -400.745L-549.098 -489.969ZM-531.621 -402.651L-513.507 -406.143L-503.339 -653.176L-554.5 -652.224L-531.621 -402.651ZM-551.005 -743.353L-554.818 -671.275L-502.703 -672.228L-499.843 -740.178L-551.005 -743.353ZM-503.656 -375.344L-605.345 -356.292L-583.418 -236.903L-480.777 -257.542L-503.656 -375.344ZM-494.123 -409.636L-401.65 -427.1C-405.146 -448.056 -411.501 -483.619 -413.726 -496.002L-491.263 -487.747L-494.123 -409.636ZM-490.628 -497.59L-368.92 -510.608L-378.135 -562.365L-488.085 -563.317L-490.628 -497.59ZM-408.006 -734.78L-480.459 -739.225L-483.319 -667.783L-396.248 -668.418L-408.006 -734.78ZM-394.977 -658.892L-484.272 -658.257L-487.768 -573.161L-380.042 -572.208L-394.977 -658.892ZM-282.485 -764.945L-388.939 -736.685L-377.5 -671.275L-271.045 -702.71L-282.485 -764.945ZM-375.911 -661.75L-350.806 -518.229L-269.774 -693.184L-375.911 -661.75ZM-263.418 -661.115L-323.16 -532.518L-257.38 -492.827C-251.978 -501.4 -244.987 -509.021 -236.407 -514.736L-263.418 -661.115ZM-244.67 -736.368L-205.901 -525.85C-203.677 -526.167 -201.452 -526.167 -198.91 -526.167L-174.441 -724.302L-244.67 -736.368ZM-155.374 -721.126L-179.843 -523.944C-179.207 -523.944 -178.889 -523.627 -178.254 -523.627L-86.7344 -709.696L-155.374 -721.126ZM-20.6375 -772.248L-85.146 -641.111L-21.5908 -629.045L22.58 -760.182L-20.6375 -772.248ZM31.7955 -757.642C22.58 -730.652 -4.74872 -648.731 -12.0576 -627.139L50.862 -615.391L67.7041 -747.798L31.7955 -757.642ZM63.8907 -564.905L138.886 -553.157L116.959 -642.381L71.5174 -625.234L63.8907 -564.905ZM73.1062 -636.03L163.354 -670.323L142.064 -716.999L80.415 -694.454L73.1062 -636.03ZM128.4 -760.499L87.0887 -747.798L81.6865 -705.25L138.568 -725.889L128.4 -760.499ZM199.263 -782.408L137.297 -763.04L148.737 -724.302L171.934 -673.498L230.723 -695.725L199.263 -782.408ZM279.661 -798.92L222.461 -775.105L234.854 -741.448L294.278 -762.087L279.661 -798.92ZM300.316 -743.671L241.528 -723.349L273.941 -634.76L325.103 -656.034L300.316 -743.671ZM385.797 -773.2L309.213 -746.846L333.682 -659.527L417.892 -694.454L425.201 -722.079C410.901 -737.638 397.872 -754.784 385.797 -773.2ZM493.523 -753.831L448.399 -780.503L440.773 -734.145C449.353 -724.937 458.25 -716.999 467.466 -709.696L493.523 -753.831ZM468.737 -684.929C459.204 -691.279 449.671 -698.582 440.773 -706.52L424.249 -643.016L546.274 -618.884L551.041 -652.859C518.946 -660.479 490.664 -670.958 468.737 -684.929ZM560.892 -650.954L549.134 -566.175L676.88 -554.109L683.235 -636.983C640.336 -638.57 598.389 -643.016 560.892 -650.954ZM618.727 -737.955L613.007 -661.75C651.14 -656.987 692.133 -655.082 732.491 -655.082L734.715 -752.244L618.727 -737.955ZM692.451 -636.348L686.095 -552.839L759.819 -545.854L756.006 -635.395C735.351 -635.395 713.742 -635.713 692.451 -636.348ZM783.97 -757.959L754.417 -754.466L753.464 -715.093L788.419 -719.539C787.466 -728.112 785.241 -746.528 783.97 -757.959ZM753.146 -705.568L751.875 -655.082C766.493 -655.082 780.792 -655.399 794.775 -656.034L789.372 -710.013L753.146 -705.568ZM945.082 -777.646L793.503 -759.229L797.952 -720.809L950.485 -739.86L945.082 -777.646ZM951.756 -730.335L912.987 -725.572L923.791 -664.607C939.045 -666.195 951.438 -667.465 960.653 -668.418L951.756 -730.335ZM892.332 -560.777L974 -575.701L963.513 -649.366C946.989 -647.461 919.343 -644.286 884.705 -641.746L892.332 -560.777ZM880.892 -580.781L831.955 -596.022L825.917 -548.711L882.799 -559.19L880.892 -580.781ZM881.527 -539.186L804.943 -525.215L824.328 -356.61L844.348 -360.42L881.527 -539.186ZM935.867 -450.597L875.49 -463.297L854.517 -362.325L926.016 -375.661L935.867 -450.597ZM945.718 -122.912L913.623 -341.051L873.901 -333.748L911.716 -116.88L945.718 -122.912ZM902.183 -114.974L885.023 -212.772L845.619 -207.374L855.787 -106.401L902.183 -114.974ZM855.152 194.293L759.819 240.017L824.328 384.49L881.527 379.727L855.152 194.293ZM884.387 398.778L733.762 411.479L736.304 455.932L894.238 468.316L884.387 398.778ZM736.939 465.776L740.435 524.2L779.839 522.93V468.951L736.939 465.776ZM895.827 478.477L789.373 470.221V523.247L901.865 520.072L895.827 478.477ZM838.945 694.075L925.063 682.644L912.034 592.15L830.365 603.263L838.945 694.075ZM910.763 582.624L906.314 551.825L825.917 554.047L829.412 593.738L910.763 582.624ZM800.177 699.155L829.412 695.345L821.15 604.533L790.961 608.661L800.177 699.155ZM790.008 599.135L820.196 595.008L816.383 554.047L785.559 555L790.008 599.135ZM747.108 706.458L781.11 702.013L771.895 610.884L740.753 612.789L747.108 706.458ZM770.941 601.041L766.175 555.635L640.971 559.128L637.476 608.661L770.941 601.041ZM737.575 707.729L730.902 613.107L636.522 618.505L628.896 722.335L737.575 707.729ZM637.793 527.375L721.051 525.153L717.873 467.681L627.307 490.86L637.793 527.375ZM672.431 469.268L662.262 417.83L606.969 422.593L624.129 481.652L672.431 469.268ZM621.904 559.763L490.981 563.573L485.261 597.23L618.091 608.661L621.904 559.763ZM617.456 617.869L483.673 606.439L475.41 655.337L613.643 670.261L617.456 617.869ZM607.287 757.262L612.371 689.63L472.55 674.389L463.017 732.495L607.287 757.262ZM461.746 621.68L471.279 563.891L301.905 568.653C305.718 583.259 311.756 605.804 320.336 632.476L461.746 621.68ZM268.22 744.244L331.458 720.112C327.645 710.586 323.831 701.06 320.336 691.852L253.921 707.411L268.22 744.244ZM313.662 673.754C297.456 628.348 287.287 589.61 282.52 569.288L242.798 570.558L204.03 636.921L244.387 689.947L313.662 673.754ZM179.243 705.188L233.9 692.487L196.403 643.271L161.765 657.56L179.243 705.188ZM158.27 648.352L190.365 635.016L153.821 587.07C149.055 590.245 144.288 592.468 138.886 594.373L158.27 648.352ZM138.568 649.939L119.82 598.183C118.231 598.183 116.96 598.183 115.371 598.183C107.744 598.183 100.117 596.913 93.1265 594.69L70.5644 640.731L138.568 649.939ZM114.1 728.685L105.837 655.337L65.7977 649.939L37.5157 707.729L114.1 728.685ZM36.2448 638.191L65.7979 577.862C55.9468 568.018 48.9557 555 46.4135 540.711L-8.24384 549.919L36.2448 638.191ZM-19.6839 751.864L-2.8418 717.889L-58.7703 702.013L-67.9858 736.941L-19.6839 751.864ZM-152.832 710.586L-77.2015 734.083L-68.3038 699.155L-158.234 673.436L-152.832 710.586ZM-161.095 652.797L5.73755 700.426L30.8418 648.987L2.55975 593.42L-166.179 617.87L-161.095 652.797ZM-164.272 765.2L-177.619 671.213L-224.649 677.564L-213.527 750.912L-164.272 765.2ZM-268.185 735.036L-224.014 747.736L-234.5 678.834L-277.4 684.549L-268.185 735.036Z" fill="#244ADC"/>
</g>
</g>
<path fill-rule="evenodd" clip-rule="evenodd" d="M174.5 82C183.069 82 190 88.573 190 96.7C190 107.725 174.5 124 174.5 124C174.5 124 159 107.725 159 96.7C159 88.573 165.931 82 174.5 82ZM174.504 101.95C177.56 101.95 180.04 99.5984 180.04 96.7004C180.04 93.8024 177.56 91.4504 174.504 91.4504C171.449 91.4504 168.969 93.8024 168.969 96.7004C168.969 99.5984 171.449 101.95 174.504 101.95Z" fill="#244ADC"/>
<mask id="mask2_162_1918" style="mask-type:luminance" maskUnits="userSpaceOnUse" x="159" y="82" width="31" height="42">
<path fill-rule="evenodd" clip-rule="evenodd" d="M174.5 82C183.069 82 190 88.573 190 96.7C190 107.725 174.5 124 174.5 124C174.5 124 159 107.725 159 96.7C159 88.573 165.931 82 174.5 82ZM174.504 101.95C177.56 101.95 180.04 99.5984 180.04 96.7004C180.04 93.8024 177.56 91.4504 174.504 91.4504C171.449 91.4504 168.969 93.8024 168.969 96.7004C168.969 99.5984 171.449 101.95 174.504 101.95Z" fill="white"/>
</mask>
<g mask="url(#mask2_162_1918)">
</g>
</g>
</g>
</g>
<defs>
<clipPath id="clip0_162_1918">
<rect width="349" height="332" fill="white" transform="matrix(-1 0 0 1 349 0)"/>
</clipPath>
<clipPath id="clip1_162_1918">
<rect width="349" height="332" fill="white" transform="matrix(-1 0 0 1 349 0)"/>
</clipPath>
</defs>
</svg>
