<svg width="1298" height="189" viewBox="0 0 1298 189" fill="none" xmlns="http://www.w3.org/2000/svg">
<mask id="mask0_232_38" style="mask-type:alpha" maskUnits="userSpaceOnUse" x="4" y="0" width="1290" height="181">
<rect x="4" width="1290" height="181" rx="20" fill="#2CA2FB"/>
</mask>
<g mask="url(#mask0_232_38)">
<path d="M29.5192 69.24C40.848 154.785 -25.4162 149.328 -59.9645 135.906L-107.252 138.459L-135.455 -43.6836C-68.5079 -91.2913 88.4741 -130.677 152.957 -72.3994C235.5 2.2003 194.5 48.1506 157.906 39.4609C114.072 29.0522 16.927 -25.844 29.5192 69.24Z" fill="#00DEFE"/>
<path d="M1254.34 61.686C1177 17.035 1224.31 -30.6745 1256.01 -49.8885L1282.8 -88.9377L1444.4 -0.307997C1441.36 81.7845 1376.92 230.254 1291.42 245.869C1151.03 271.508 1165.23 191.067 1199.71 181.629C1243.17 169.734 1337.4 109.643 1254.34 61.686Z" fill="#FCAF3D"/>
</g>
</svg>
