<svg width="48" height="43" viewBox="0 0 48 43" fill="none" xmlns="http://www.w3.org/2000/svg">
<g clip-path="url(#clip0_22_257)">
<path d="M4.68293 4.71233H35.1219H39.8049V2.35616C39.8049 1.06027 38.7512 0 37.4634 0H2.34146C1.05366 0 0 1.06027 0 2.35616V29.4521C0 30.7479 1.05366 31.8082 2.34146 31.8082H16.1912L15.4068 36.5205H11.1102C10.1385 36.5205 9.35415 37.3099 9.35415 38.2877C9.35415 39.2655 10.1385 40.0548 11.1102 40.0548H22.8176V27.0959H4.68293V4.71233ZM43.3171 7.65753H30.439C27.8517 7.65753 25.7561 9.7663 25.7561 12.3699V38.2877C25.7561 40.8912 27.8517 43 30.439 43H43.3171C45.9044 43 48 40.8912 48 38.2877V12.3699C48 9.7663 45.9044 7.65753 43.3171 7.65753ZM37.7561 40.0548H36C35.0283 40.0548 34.2439 39.2655 34.2439 38.2877C34.2439 37.3099 35.0283 36.5205 36 36.5205H37.7561C38.7278 36.5205 39.5122 37.3099 39.5122 38.2877C39.5122 39.2655 38.7278 40.0548 37.7561 40.0548ZM44.2771 32.8567C44.2771 33.5047 43.7502 34.0348 43.1063 34.0348H30.6615C30.0176 34.0348 29.4907 33.5047 29.4907 32.8567V13.8307C29.4907 13.1827 30.0176 12.6526 30.6615 12.6526H43.1063C43.7502 12.6526 44.2771 13.1827 44.2771 13.8307V32.8685V32.8567Z" fill="#172740"/>
<path d="M21.3776 9.42468H20.0547C19.6917 9.42468 19.3991 9.7192 19.3991 10.0844V11.0622C19.3991 11.3567 19.2 11.6159 18.9074 11.6984C18.5913 11.8044 18.2752 11.934 17.9825 12.0871C17.7249 12.2167 17.4088 12.1932 17.1981 11.9811L16.5074 11.2861C16.2498 11.0269 15.8283 11.0269 15.5708 11.2861L14.6342 12.2285C14.3766 12.4877 14.3766 12.9118 14.6342 13.171L15.3249 13.8661C15.5356 14.0781 15.5591 14.3844 15.4303 14.6554C15.2781 14.9499 15.1493 15.2562 15.0439 15.5861C14.9503 15.8688 14.7044 16.0808 14.4117 16.0808H13.44C13.0771 16.0808 12.7844 16.3754 12.7844 16.7406V18.0718C12.7844 18.437 13.0771 18.7315 13.44 18.7315H14.4117C14.7044 18.7315 14.962 18.9318 15.0439 19.2263C15.1493 19.5444 15.2781 19.8625 15.4303 20.157C15.5591 20.4162 15.5356 20.7343 15.3249 20.9463L14.6342 21.6414C14.3766 21.9006 14.3766 22.3247 14.6342 22.5839L15.5708 23.5263C15.8283 23.7855 16.2498 23.7855 16.5074 23.5263L17.1981 22.8313C17.4088 22.6192 17.7132 22.5956 17.9825 22.7252C18.2752 22.8784 18.5795 23.008 18.9074 23.114C19.1883 23.2082 19.3991 23.4556 19.3991 23.7502V24.728C19.3991 25.0932 19.6917 25.3877 20.0547 25.3877H21.3776C21.7405 25.3877 22.0332 25.0932 22.0332 24.728V20.4633C21.6234 20.64 21.1786 20.7461 20.7103 20.7461C18.8839 20.7461 17.4088 19.2617 17.4088 17.4239C17.4088 15.5861 18.8839 14.1017 20.7103 14.1017C21.1786 14.1017 21.6234 14.2077 22.0332 14.3844V10.1198C22.0332 9.75455 21.7405 9.46002 21.3776 9.46002V9.42468ZM40.1093 21.9595H39.1376C38.8449 21.9595 38.5874 21.7592 38.5054 21.4647C38.4 21.1466 38.2713 20.8285 38.1191 20.534C37.9903 20.2748 38.0137 19.9567 38.2244 19.7447L38.9152 19.0496C39.1727 18.7904 39.1727 18.3663 38.9152 18.1071L37.9786 17.1647C37.721 16.9055 37.2995 16.9055 37.042 17.1647L36.3513 17.8598C36.1405 18.0718 35.8361 18.0954 35.5669 17.9658C35.2742 17.8126 34.9698 17.683 34.642 17.577C34.361 17.4828 34.1503 17.2354 34.1503 16.9408V15.963C34.1503 15.5978 33.8576 15.3033 33.4947 15.3033H32.1717C31.8088 15.3033 31.5161 15.5978 31.5161 15.963V20.2277C31.9259 20.051 32.3708 19.945 32.8391 19.945C34.6654 19.945 36.1405 21.4293 36.1405 23.2671C36.1405 25.105 34.6654 26.5893 32.8391 26.5893C32.3708 26.5893 31.9259 26.4833 31.5161 26.3066V30.5713C31.5161 30.9365 31.8088 31.231 32.1717 31.231H33.4947C33.8576 31.231 34.1503 30.9365 34.1503 30.5713V29.5934C34.1503 29.2989 34.3493 29.0397 34.642 28.9573C34.9581 28.8513 35.2742 28.7217 35.5669 28.5685C35.8244 28.4271 36.1405 28.4625 36.3513 28.6745L37.042 29.3696C37.2995 29.6288 37.721 29.6288 37.9786 29.3696L38.9152 28.4271C39.1727 28.168 39.1727 27.7439 38.9152 27.4847L38.2244 26.7896C38.0137 26.5776 37.9903 26.2713 38.1191 26.0003C38.2713 25.7058 38.4 25.3995 38.5054 25.0696C38.5991 24.7869 38.8449 24.5748 39.1376 24.5748H40.1093C40.4722 24.5748 40.7649 24.2803 40.7649 23.9151V22.5839C40.7649 22.2187 40.4722 21.9241 40.1093 21.9241V21.9595Z" fill="#172740"/>
</g>
<defs>
<clipPath id="clip0_22_257">
<rect width="48" height="43" fill="white"/>
</clipPath>
</defs>
</svg>
