<svg width="17" height="15" viewBox="0 0 17 15" fill="none" xmlns="http://www.w3.org/2000/svg">
<path d="M2.9549 14V14.1851L3.10972 14.0836L7.42518 11.2549H13.9378C15.1244 11.2549 16.1 10.3442 16.1 9.21228V2.94263C16.1 1.81054 15.1244 0.9 13.9378 0.9H3.06223C1.87563 0.9 0.9 1.81054 0.9 2.94263V9.21228C0.9 10.3099 1.81733 11.1995 2.9549 11.2524V14ZM7.11957 10.227H7.08971L7.06475 10.2433L4.03381 12.2302V10.327V10.227H3.93381H3.06223C2.45925 10.227 1.97891 9.76608 1.97891 9.21228V2.94263C1.97891 2.38867 2.45924 1.92794 3.06223 1.92794H13.9378C14.5408 1.92794 15.0211 2.38867 15.0211 2.94263V9.21228C15.0211 9.76608 14.5407 10.227 13.9378 10.227H7.11957Z" fill="#2CA2FB" stroke="#2CA2FB" stroke-width="0.2"/>
</svg>
