<svg width="16" height="16" viewBox="0 0 16 16" fill="none" xmlns="http://www.w3.org/2000/svg">
<path d="M13.0558 2.94418C11.7056 1.59394 9.90952 0.85 8 0.85C6.09037 0.85 4.29442 1.59394 2.94418 2.94418C1.59394 4.29442 0.85 6.09037 0.85 8C0.85 9.90952 1.59394 11.7056 2.94418 13.0558C4.29442 14.4061 6.09037 15.15 8 15.15C9.90952 15.15 11.7056 14.4061 13.0558 13.0558C14.4061 11.7056 15.15 9.90952 15.15 8C15.15 6.09037 14.4061 4.29442 13.0558 2.94418ZM4.67493 13.0274C4.99256 11.4617 6.36872 10.3174 8 10.3174C9.63138 10.3174 11.0074 11.4617 11.3251 13.0274C10.3712 13.6604 9.22811 14.0297 8 14.0297C6.77189 14.0297 5.62878 13.6604 4.67493 13.0274ZM5.92426 7.12137C5.92426 5.97684 6.85557 5.04563 8 5.04563C9.14442 5.04563 10.0757 5.97695 10.0757 7.12137C10.0757 8.26579 9.14442 9.19711 8 9.19711C6.85558 9.19711 5.92426 8.26579 5.92426 7.12137ZM9.96003 9.64411C10.7114 9.05915 11.1962 8.14602 11.1962 7.12137C11.1962 5.35891 9.76245 3.92532 8 3.92532C6.23755 3.92532 4.80395 5.35891 4.80395 7.12137C4.80395 8.14602 5.28871 9.05915 6.04 9.64411C5.65483 9.82988 5.29486 10.071 4.97196 10.3633C4.39876 10.8821 3.97343 11.5322 3.72796 12.2505C2.64218 11.1592 1.97031 9.65669 1.97031 8C1.97031 4.67534 4.67534 1.97031 8 1.97031C11.3247 1.97031 14.0297 4.67534 14.0297 8C14.0297 9.65679 13.3578 11.1593 12.272 12.2506C12.0266 11.5323 11.6013 10.8822 11.028 10.3634C11.028 10.3634 11.028 10.3634 11.028 10.3634L10.9274 10.4746L9.96003 9.64411Z" fill="#2CA2FB" stroke="#2CA2FB" stroke-width="0.3"/>
</svg>
