<svg width="44" height="52" viewBox="0 0 44 52" fill="none" xmlns="http://www.w3.org/2000/svg">
<g clip-path="url(#clip0_22_262)">
<path d="M14.08 0.159973C14.08 0.159973 13.92 0.191973 13.856 0.255973L0.255997 13.856C0.0479966 14.064 0.191997 14.4 0.479997 14.4H13.168C13.84 14.4 14.384 13.856 14.384 13.184V0.479973C14.384 0.287973 14.224 0.159973 14.064 0.159973H14.08ZM41.6 29.344H22.4C21.52 29.344 20.8 30.064 20.8 30.944V33.728C20.8 34.112 20.928 34.48 21.184 34.768L28.144 42.96C28.384 43.248 28.528 43.616 28.528 44V48.336C28.528 48.912 28.848 49.456 29.36 49.744L33.104 51.824C33.36 51.968 33.616 52.032 33.872 52.032C34.704 52.032 35.472 51.36 35.472 50.432V44.032C35.472 43.648 35.6 43.28 35.856 42.992L42.816 34.8C43.056 34.512 43.2 34.144 43.2 33.76V30.976C43.2 30.096 42.48 29.376 41.6 29.376V29.344Z" fill="#172740"/>
<path d="M22.4 25.344H38.208V3.2C38.208 1.44 36.768 0 35.008 0H18.352C18.368 0.16 18.4 0.32 18.4 0.48V13.168C18.4 16.048 16.064 18.384 13.184 18.384H0.48C0.32 18.384 0.16 18.368 0 18.352V44.4C0 46.16 1.44 47.6 3.2 47.6H24.528V44.864L18.144 37.344C17.28 36.336 16.816 35.04 16.816 33.712V30.928C16.816 27.84 19.328 25.328 22.416 25.328L22.4 25.344Z" fill="#172740"/>
</g>
<defs>
<clipPath id="clip0_22_262">
<rect width="43.2" height="52" fill="white"/>
</clipPath>
</defs>
</svg>
