<svg width="16" height="16" viewBox="0 0 16 16" fill="none" xmlns="http://www.w3.org/2000/svg">
<path d="M6.74854 0C3.0295 0 0 3.02949 0 6.74855C0 10.4676 3.0295 13.503 6.74854 13.503C8.33705 13.503 9.79799 12.9463 10.9526 12.022L13.7637 14.8315C13.9055 14.9675 14.095 15.0426 14.2915 15.0405C14.488 15.0385 14.6759 14.9597 14.8149 14.8208C14.954 14.682 15.0331 14.4942 15.0354 14.2977C15.0377 14.1012 14.9629 13.9116 14.8271 13.7696L12.0161 10.9586C12.9412 9.80214 13.4985 8.3389 13.4985 6.74855C13.4985 3.02949 10.4676 0 6.74854 0ZM6.74854 1.50002C9.65691 1.50002 11.9971 3.84017 11.9971 6.74855C11.9971 9.65692 9.65691 12.003 6.74854 12.003C3.84016 12.003 1.5 9.65692 1.5 6.74855C1.5 3.84017 3.84016 1.50002 6.74854 1.50002Z" fill="white"/>
</svg>
