<svg width="617" height="400" viewBox="0 0 617 400" fill="none" xmlns="http://www.w3.org/2000/svg">
<path d="M308.5 398.83C478.328 398.83 616 345.129 616 278.885C616 212.64 478.328 158.939 308.5 158.939C138.672 158.939 1 212.64 1 278.885C1 345.129 138.672 398.83 308.5 398.83Z" stroke="#FF83B2"/>
<path fill-rule="evenodd" clip-rule="evenodd" d="M308.5 193.628C429.211 193.628 527.067 231.799 527.067 278.884C527.067 325.97 429.211 364.141 308.5 364.141C187.789 364.141 89.9327 325.97 89.9327 278.884C89.9327 231.799 187.789 193.628 308.5 193.628Z" fill="url(#paint0_linear_59_187)"/>
<path d="M277.596 1.73992C277.513 9.9424 276.021 28.9158 276.104 37.1183C276.187 45.9008 265.582 157.919 263.013 174.323C260.362 191.143 261.356 208.376 260.694 225.361C269.725 225.03 400.467 221.55 426.98 219.976C430.294 219.81 428.057 206.802 427.809 205.393C424.329 188.326 434.106 95.2814 434.769 67.8569C435.183 53.109 436.508 14.5822 436.508 0C422.009 1.57421 277.596 1.73992 277.596 1.73992Z" fill="white"/>
<path fill-rule="evenodd" clip-rule="evenodd" d="M397.07 80.7821H301.623C301.292 80.7821 301.126 80.5335 301.126 80.285L305.6 20.2991C305.6 20.0506 305.849 19.802 306.18 19.802H401.627C401.959 19.802 402.124 20.0506 402.124 20.2991L397.65 80.285C397.65 80.5335 397.402 80.7821 397.07 80.7821ZM324.574 79.705L325.982 61.1458H303.612L302.203 79.705H324.574ZM325.568 79.705L326.976 61.1458H351.335L349.927 79.705H325.568ZM352.412 61.1458L351.004 79.705H375.363L376.771 61.1458H352.412ZM377.848 61.1458H398.065L396.656 79.705H376.44L377.848 61.1458ZM305.186 40.3495L303.695 60.0686H325.982L327.473 40.3495H305.186ZM327.059 60.0686L328.551 40.3495H352.909L351.418 60.0686H327.059ZM353.987 40.3495L352.495 60.0686H376.854L378.345 40.3495H353.987ZM377.848 60.0686L379.34 40.3495H399.556L398.065 60.0686H377.848ZM306.677 20.7962L305.269 39.3553H327.556L328.965 20.7962H306.677ZM328.633 39.3553L330.042 20.7962H354.401L352.992 39.3553H328.633ZM355.395 20.7962L353.987 39.3553H378.345L379.754 20.7962H355.395ZM379.423 39.3553L380.831 20.7962H401.13L399.722 39.3553H379.423Z" fill="#6A76F5" fill-opacity="0.94"/>
<path d="M400.882 29.4958C401.213 29.4958 401.379 29.7444 401.379 29.993C401.379 30.2415 401.13 30.4901 400.799 30.4901H396.988C395.993 30.4901 395.248 31.2358 394.668 32.4786C393.673 34.5499 393.176 37.7812 392.596 41.0125C392.016 44.3266 391.436 47.7236 390.442 49.8778C389.614 51.5348 388.536 52.4462 387.045 52.4462C386.299 52.4462 385.719 52.2805 385.222 51.9491C384.559 51.452 384.145 50.7063 383.98 49.7949C383.648 48.3864 383.814 46.4808 383.814 44.5752C383.814 43.1667 383.814 41.6753 383.565 40.5153C383.4 39.6868 383.068 38.9411 382.488 38.444C381.908 37.9469 381.08 37.6983 379.92 37.6983C377.6 37.6983 376.274 39.024 375.446 40.9296C374.866 42.2553 374.451 43.9123 374.037 45.4866C373.54 47.5579 373.126 49.7121 372.297 51.2863C371.386 53.0262 370.143 54.1862 368.072 54.1862C364.095 54.1862 363.68 51.2034 363.018 48.2207C362.686 46.6465 362.272 45.0723 360.946 44.078C360.118 43.4152 358.875 43.0009 357.052 43.0009C354.815 43.0009 353.158 44.2438 351.75 46.0665C350.258 48.055 349.098 50.6235 347.938 53.2748C346.778 55.9261 345.618 58.6602 344.21 60.6487C342.719 62.8029 340.813 64.2114 338.41 64.2114C333.688 64.2114 331.782 60.6487 330.125 57.086C329.296 55.429 328.551 53.689 327.556 52.4462C326.562 51.2863 325.319 50.4578 323.497 50.4578C322.668 50.4578 321.674 50.7892 320.68 51.2863C319.105 52.1148 317.448 53.5233 315.708 55.2633C308.997 61.9744 302.369 73.2424 302.369 73.2424C302.203 73.491 301.872 73.5738 301.623 73.491C301.375 73.3253 301.292 73.0767 301.458 72.8282C301.458 72.8282 308.169 61.4773 314.963 54.6004C316.703 52.7776 318.525 51.3691 320.182 50.4578C321.342 49.7949 322.502 49.4635 323.497 49.4635C325.651 49.4635 327.142 50.3749 328.302 51.7834C329.379 53.1091 330.208 54.849 331.036 56.5889C332.61 59.8202 334.185 63.1343 338.493 63.1343C340.564 63.1343 342.056 61.8915 343.381 60.0687C344.79 58.0803 345.867 55.5118 347.027 52.8605C348.187 50.2092 349.43 47.475 350.921 45.4866C352.578 43.3324 354.484 41.9239 357.135 41.9239C359.206 41.9239 360.615 42.421 361.609 43.1667C363.1 44.3266 363.598 46.0665 364.012 47.8893C364.26 48.9664 364.426 50.0435 364.84 51.0377C365.338 52.2805 366.249 53.1919 368.155 53.1919C369.729 53.1919 370.723 52.2805 371.386 50.9549C372.131 49.4635 372.546 47.3922 373.043 45.4037C373.54 43.2495 374.037 41.1782 375.031 39.5211C376.108 37.7812 377.6 36.7041 380.003 36.7041C384.642 36.7041 384.974 40.5982 384.891 44.5752C384.891 46.3979 384.725 48.2207 385.057 49.5464C385.305 50.7063 385.885 51.452 387.211 51.452C388.288 51.452 389.034 50.7063 389.614 49.4635C390.608 47.3922 391.188 44.1609 391.685 40.9296C392.265 37.6155 392.762 34.2185 393.839 32.0643C394.585 30.4072 395.662 29.4958 397.153 29.4958H400.882V29.4958Z" fill="#6A76F5" fill-opacity="0.94"/>
<path d="M388.623 127.835C396.666 120.09 397.37 107.773 390.196 100.324C383.022 92.875 370.687 93.1152 362.645 100.86C354.602 108.606 353.898 120.923 361.072 128.372C368.246 135.821 380.581 135.581 388.623 127.835Z" fill="#FFBE02"/>
<path d="M390.442 100.584C393.673 104.147 395.496 108.952 395.082 114.338C394.668 119.557 392.265 124.363 388.536 127.843L375.528 114.338L390.442 100.584Z" fill="#FF6F5F"/>
<path d="M305.6 108.704H318.774L313.968 172.418H300.795L305.6 108.704Z" fill="#3847BC"/>
<path d="M327.556 127.263H340.73L337.333 172.418H324.159L327.556 127.263Z" fill="#B5BCED"/>
<path d="M349.927 140.436H363.183L360.78 172.418H347.524L349.927 140.436Z" fill="#3847BC"/>
<path d="M372.628 149.799H385.802L384.145 172.418H370.889L372.628 149.799Z" fill="#B5BCED"/>
<path d="M299.966 183.106H383.317L383.068 186.42H299.718L299.966 183.106Z" fill="#3847BC"/>
<path d="M299.469 190.646H382.737L382.488 193.96H299.22L299.469 190.646Z" fill="#3847BC"/>
<path d="M402.373 188.74L513.396 229.67L449.102 287.833L338.079 246.903L402.373 188.74Z" fill="#2F216B"/>
<path fill-rule="evenodd" clip-rule="evenodd" d="M338.079 246.903L449.102 287.833V304.072L338.079 263.225V246.903Z" fill="url(#paint1_linear_59_187)"/>
<path d="M529.056 199.18L418.032 158.25L402.373 188.74L513.396 229.67L529.056 199.18Z" fill="#2F216B"/>
<path d="M426.4 187.746C430.336 187.746 433.526 184.556 433.526 180.62C433.526 176.685 430.336 173.495 426.4 173.495C422.465 173.495 419.275 176.685 419.275 180.62C419.275 184.556 422.465 187.746 426.4 187.746Z" fill="#120355"/>
<path d="M445.042 194.623C448.978 194.623 452.168 191.432 452.168 187.497C452.168 183.562 448.978 180.372 445.042 180.372C441.107 180.372 437.917 183.562 437.917 187.497C437.917 191.432 441.107 194.623 445.042 194.623Z" fill="#120355"/>
<path d="M396.076 202.742L414.304 209.453L401.544 221.053L383.317 214.342L396.076 202.742Z" fill="#624CBE"/>
<path d="M382.654 214.922L400.882 221.633L388.122 233.149L369.894 226.438L382.654 214.922Z" fill="#624CBE"/>
<path d="M369.232 227.018L387.459 233.729L374.7 245.329L356.472 238.618L369.232 227.018Z" fill="#624CBE"/>
<path d="M415.05 209.702L433.277 216.413L420.435 228.012L402.207 221.301L415.05 209.702Z" fill="#624CBE"/>
<path d="M401.544 221.881L419.772 228.592L407.013 240.109L388.785 233.398L401.544 221.881Z" fill="#120355"/>
<path d="M388.122 233.978L406.35 240.689L393.59 252.289L375.363 245.577L388.122 233.978Z" fill="#624CBE"/>
<path d="M433.94 216.662L452.168 223.373L439.326 234.972L421.098 228.261L433.94 216.662Z" fill="#624CBE"/>
<path d="M455.813 227.764L474.041 234.475L465.921 241.766L447.694 235.055L455.813 227.764Z" fill="#120355"/>
<path d="M442.888 239.446L461.116 246.157L452.996 253.449L434.769 246.737L442.888 239.446Z" fill="#120355"/>
<path d="M429.88 251.129L448.108 257.84L440.071 265.131L421.843 258.42L429.88 251.129Z" fill="#120355"/>
<path d="M420.518 228.841L438.746 235.552L425.903 247.152L407.676 240.44L420.518 228.841Z" fill="#624CBE"/>
<path d="M407.096 240.938L425.24 247.649L412.481 259.248L394.253 252.537L407.096 240.938Z" fill="#624CBE"/>
<path fill-rule="evenodd" clip-rule="evenodd" d="M449.102 287.833L513.397 229.67V245.992L449.102 304.072V287.833Z" fill="url(#paint2_linear_59_187)"/>
<path d="M326.479 280.044C323.745 278.056 320.182 277.642 317.117 278.967C309.08 282.53 293.089 289.655 282.733 294.295C280.744 295.207 279.336 297.112 279.087 299.266C278.838 301.421 279.75 303.575 281.573 304.9L328.799 340.279C331.533 342.267 335.096 342.682 338.161 341.356C346.198 337.793 362.189 330.668 372.546 326.028C374.534 325.117 375.943 323.211 376.191 321.057C376.44 318.903 375.528 316.748 373.706 315.423L326.479 280.044Z" fill="white"/>
<path d="M282.981 294.212L287.372 292.224L347.441 337.213L343.05 339.119L282.981 294.212Z" fill="#3847BC"/>
<path d="M186.788 296.615H240.146V301.006C240.146 304.652 228.215 307.635 213.467 307.635C198.719 307.635 186.788 304.652 186.788 301.006V296.615H186.788Z" fill="#FFA000"/>
<path d="M213.467 303.243C228.201 303.243 240.146 300.276 240.146 296.615C240.146 292.954 228.201 289.987 213.467 289.987C198.733 289.987 186.788 292.954 186.788 296.615C186.788 300.276 198.733 303.243 213.467 303.243Z" fill="#FFBE02"/>
<path d="M186.788 290.815H240.146V295.207C240.146 298.852 228.215 301.835 213.467 301.835C198.719 301.835 186.788 298.852 186.788 295.207V290.815H186.788Z" fill="#FFA000"/>
<path d="M213.467 297.444C228.201 297.444 240.146 294.476 240.146 290.815C240.146 287.155 228.201 284.187 213.467 284.187C198.733 284.187 186.788 287.155 186.788 290.815C186.788 294.476 198.733 297.444 213.467 297.444Z" fill="#FFBE02"/>
<path d="M186.788 284.933H240.146V289.324C240.146 292.97 228.215 295.952 213.467 295.952C198.719 295.952 186.788 292.97 186.788 289.324V284.933H186.788Z" fill="#FFA000"/>
<path d="M213.467 291.561C228.201 291.561 240.146 288.593 240.146 284.933C240.146 281.272 228.201 278.305 213.467 278.305C198.733 278.305 186.788 281.272 186.788 284.933C186.788 288.593 198.733 291.561 213.467 291.561Z" fill="#FFBE02"/>
<path d="M186.788 279.216H240.146V283.607C240.146 287.253 228.215 290.235 213.467 290.235C198.719 290.235 186.788 287.253 186.788 283.607V279.216H186.788Z" fill="#FFA000"/>
<path d="M213.467 285.844C228.201 285.844 240.146 282.877 240.146 279.216C240.146 275.555 228.201 272.588 213.467 272.588C198.733 272.588 186.788 275.555 186.788 279.216C186.788 282.877 198.733 285.844 213.467 285.844Z" fill="#FFBE02"/>
<path d="M142.13 232.321H201.619V260.325C201.619 264.385 188.28 267.699 171.875 267.699C155.47 267.699 142.13 264.385 142.13 260.325V232.321Z" fill="#120355"/>
<path d="M118.517 279.216H171.875V299.101C171.875 302.746 159.944 305.729 145.196 305.729C130.448 305.729 118.517 302.746 118.517 299.101V279.216H118.517Z" fill="#FFA000"/>
<path d="M145.196 285.844C159.93 285.844 171.875 282.877 171.875 279.216C171.875 275.555 159.93 272.588 145.196 272.588C130.462 272.588 118.517 275.555 118.517 279.216C118.517 282.877 130.462 285.844 145.196 285.844Z" fill="#FFBE02"/>
<path fill-rule="evenodd" clip-rule="evenodd" d="M151.161 275.405L152.156 274.825L153.647 274.908L152.653 275.488C153.398 275.57 154.061 275.736 154.476 275.902C155.056 276.15 155.304 276.482 155.221 276.813C155.138 277.227 154.724 277.559 153.978 278.056L151.824 277.973C152.57 277.476 152.819 277.145 152.57 276.813C152.404 276.565 151.907 276.399 151.161 276.316L147.102 278.636C147.839 278.806 148.422 278.976 148.822 279.093C149.006 279.147 149.151 279.19 149.256 279.216C149.836 279.464 150.084 279.796 150.002 280.127C149.919 280.459 149.504 280.79 148.842 281.204C148.179 281.619 147.267 281.95 146.19 282.281C145.113 282.613 143.953 282.779 142.71 282.944L142.59 282.953H142.59C141.476 283.033 140.436 283.107 139.396 283.027L138.402 283.607L136.911 283.524L137.905 282.944C137.076 282.861 136.414 282.696 135.916 282.53C135.254 282.281 135.005 281.95 135.171 281.453C135.336 281.039 135.751 280.542 136.662 280.044L138.816 280.127C138.236 280.542 137.988 280.79 137.905 281.122C137.822 281.37 138.071 281.619 138.485 281.784C138.531 281.8 138.58 281.818 138.633 281.838C138.863 281.923 139.157 282.033 139.562 282.033L144.202 279.382C143.208 279.133 142.545 278.967 142.213 278.719C141.799 278.47 141.633 278.222 141.716 277.89C141.788 277.604 142.108 277.379 142.568 277.055C142.64 277.005 142.715 276.952 142.793 276.896C143.456 276.565 144.285 276.233 145.279 275.902C146.273 275.653 147.433 275.405 148.593 275.322C149.422 275.405 150.333 275.405 151.161 275.405ZM145.279 279.713L140.888 282.199H142.876C143.705 282.116 144.367 282.033 145.03 281.867C145.693 281.701 146.19 281.536 146.605 281.287C147.019 281.039 147.184 280.873 147.267 280.624C147.267 280.459 147.019 280.21 146.605 280.044C146.451 279.993 146.234 279.942 145.934 279.871L145.934 279.871L145.934 279.871C145.749 279.827 145.532 279.776 145.279 279.713ZM147.019 276.399C147.847 276.233 148.676 276.233 149.67 276.233L145.859 278.387C144.865 278.139 144.367 277.973 144.285 277.807C144.119 277.642 144.285 277.393 144.782 277.145C145.279 276.813 146.025 276.565 147.019 276.399Z" fill="#FFA000"/>
<path fill-rule="evenodd" clip-rule="evenodd" d="M218.562 276.062L219.396 275.635L220.622 276.256L219.789 276.683C220.41 277.079 220.987 277.447 221.359 277.843C221.828 278.381 222.083 278.863 221.963 279.345C221.843 279.828 221.509 280.254 220.872 280.567L219.085 279.748C219.713 279.35 219.922 278.924 219.711 278.471C219.554 278.13 219.182 277.734 218.48 277.367L214.948 279.189C215.888 279.868 216.482 280.406 216.765 280.745C217.233 281.283 217.488 281.765 217.405 282.191C217.321 282.616 216.979 282.957 216.387 283.299C215.831 283.584 215.017 283.784 214.106 283.842C213.195 283.901 212.187 283.818 211.082 283.593C210.102 283.368 209.194 283.029 208.278 282.606L207.444 283.033L206.218 282.411L207.051 281.984L207.051 281.984C206.341 281.532 205.764 281.164 205.348 280.739C204.835 280.173 204.616 279.635 204.728 279.067C204.84 278.5 205.254 278.045 205.971 277.703L207.795 278.466C207.328 278.807 207.066 279.119 206.974 279.46C206.882 279.8 207.084 280.169 207.5 280.593C207.73 280.82 208.005 281.075 208.405 281.329L212.376 279.307C211.48 278.657 210.93 278.147 210.692 277.836C210.312 277.354 210.19 276.958 210.238 276.589C210.33 276.248 210.628 275.879 211.147 275.651C211.703 275.366 212.437 275.195 213.303 275.108C214.17 275.021 215.097 275.133 216.122 275.386C217.085 275.441 217.824 275.751 218.562 276.062ZM213.522 279.958L209.793 281.894C210.362 282.176 210.922 282.374 211.519 282.514C212.205 282.712 212.838 282.795 213.374 282.738C213.955 282.708 214.366 282.651 214.68 282.451C215.038 282.281 215.183 282.053 215.203 281.826C215.222 281.599 215.02 281.231 214.612 280.891C214.426 280.693 214.063 280.382 213.522 279.958ZM215.018 276.04C215.732 276.096 216.462 276.321 217.289 276.688L214.035 278.368C213.228 277.774 212.767 277.321 212.698 277.038C212.585 276.726 212.729 276.499 213.124 276.271C213.563 276.072 214.18 275.985 215.018 276.04Z" fill="#FFA000"/>
<path d="M171.875 239.695C188.302 239.695 201.619 236.393 201.619 232.321C201.619 228.248 188.302 224.947 171.875 224.947C155.447 224.947 142.13 228.248 142.13 232.321C142.13 236.393 155.447 239.695 171.875 239.695Z" fill="#090032"/>
<path d="M216.864 225.195C216.864 225.195 218.273 230.167 216.864 231.409C215.456 232.735 210.733 237.375 212.639 238.452C214.544 239.446 223.244 236.381 224.155 234.144C224.984 231.907 225.149 226.521 224.818 225.858C224.321 225.278 216.864 225.195 216.864 225.195Z" fill="#ECECEC"/>
<path d="M237.743 222.378C237.743 222.378 237.163 227.184 238.655 227.433C240.146 227.681 246.608 232.652 248.348 233.232C250.005 233.729 253.154 232.321 253.237 230.664C253.32 229.007 246.36 220.97 245.2 220.307C244.123 219.479 237.743 222.378 237.743 222.378Z" fill="#ECECEC"/>
<path d="M210.567 160.653C210.567 160.653 215.87 223.538 217.03 225.941C218.19 228.344 223.658 227.35 224.57 225.941C225.481 224.533 227.055 174.406 227.801 173.744C228.464 173.081 236.418 222.213 237.909 222.544C239.4 222.793 245.034 223.456 245.283 220.141C245.531 216.827 241.223 158.333 240.726 154.439C240.229 150.545 219.267 148.97 219.267 148.97L210.567 160.653Z" fill="#2F216B"/>
<path d="M245.531 103.401C245.531 103.401 264.588 96.1927 266.245 94.7014C267.902 93.21 266.99 89.3159 269.062 89.0673C271.133 88.8188 271.216 91.1387 271.299 91.8015C271.382 92.4643 276.021 89.3159 277.679 89.7302C279.336 90.1444 280.91 90.6415 279.75 93.8728C278.507 97.1041 249.591 115.58 248.266 115.498C246.94 115.332 245.531 103.401 245.531 103.401Z" fill="#FF6F5F"/>
<path d="M213.301 105.721C213.301 105.721 204.022 109.615 200.873 114.006C198.636 117.072 195.571 124.114 195.571 124.114C195.571 124.114 202.945 131.903 203.773 131.488C204.602 131.074 207.502 124.86 207.502 124.86C207.502 124.86 206.425 157.67 207.502 159.244C208.579 160.818 213.467 161.315 216.367 160.818C219.267 160.321 239.483 155.516 240.726 154.522C241.969 153.444 241.969 152.533 240.726 151.539C239.483 150.545 235.506 121.463 235.92 120.717C236.335 119.889 248.431 116.326 248.514 115.58C248.597 114.835 246.111 103.152 245.531 103.567C245.2 103.732 239.98 105.555 234.429 105.887C229.292 106.218 223.741 105.058 223.741 105.058L213.301 105.721Z" fill="#F9CA78"/>
<path d="M195.571 124.032C195.571 124.032 191.925 130.246 193.914 134.885C195.902 139.608 210.567 160.156 214.213 156.593C216.284 154.522 215.041 150.379 213.467 149.219C210.899 147.23 213.881 148.308 214.213 147.645C214.544 146.899 213.799 145.656 212.059 145.325C210.236 144.993 208.496 143.916 208.496 143.916C208.496 143.916 202.448 136.708 202.116 134.802C201.785 132.897 203.69 131.323 203.69 131.323L195.571 124.032Z" fill="#FF6F5F"/>
<path d="M207.585 93.9557C207.585 93.9557 207.087 97.3527 207.999 98.7612C209.242 100.75 211.23 99.8383 211.727 99.8383C213.716 99.9212 213.467 105.307 213.219 105.721C217.61 110.195 223.824 108.041 224.321 107.129C224.818 106.218 224.735 103.981 224.735 103.981C224.735 103.981 228.795 102.158 229.955 97.2698C230.784 93.79 230.535 89.6473 230.535 89.6473L231.115 83.8476L225.398 83.1848C219.267 82.7705 211.893 86.3332 208.745 89.6473C207.253 91.1387 207.585 93.9557 207.585 93.9557Z" fill="#FF6F5F"/>
<path d="M218.687 108.372C216.201 106.218 215.456 102.49 217.61 103.65C219.847 104.892 224.818 104.064 224.818 104.064C224.818 104.312 224.818 106.301 224.404 107.129C224.072 107.709 221.587 108.704 218.687 108.372Z" fill="#F95B4A"/>
<path d="M213.384 94.7014C214.296 94.5357 215.704 91.7187 215.621 88.4874C220.593 88.156 221.09 85.7532 221.338 84.5933C227.718 88.3217 230.452 84.6761 230.452 84.6761V89.6473C236.169 84.4276 235.589 70.7568 224.487 70.4253C221.173 70.3425 216.947 73.2424 214.793 77.3022C209.739 77.1365 204.602 82.5219 204.602 86.4989C204.602 90.2273 207.585 93.9557 207.585 93.9557C207.585 93.9557 208.413 92.2986 210.484 92.3815C212.059 92.3815 211.81 94.9499 213.384 94.7014Z" fill="#261616"/>
<path d="M217.196 256.928C217.196 256.928 220.013 262.811 221.752 263.391C223.492 263.971 229.209 259.994 230.949 256.431C232.689 252.869 234.18 247.814 230.949 248.809C227.718 249.803 223.161 252.703 223.161 252.703L217.196 256.928Z" fill="#2F216B"/>
<path d="M186.126 155.267C186.126 155.267 190.517 160.073 189.854 166.37C189.191 172.666 186.871 176.063 185.546 177.223C184.22 178.3 175.935 173.826 175.935 173.826L174.609 166.37L177.094 160.073L186.126 155.267Z" fill="#FF6F5F"/>
<path d="M184.303 230.415C184.303 230.415 200.873 236.961 204.436 239.032C208.082 241.103 216.201 256.928 217.527 257.177C218.853 257.425 223.99 257.011 224.155 254.526C224.404 252.04 215.704 228.178 213.136 224.864C210.567 221.55 195.322 213.265 193.085 212.767C190.931 212.436 184.303 230.415 184.303 230.415Z" fill="#F6612B"/>
<path d="M204.353 170.181C204.353 170.181 213.633 166.618 215.87 163.304C218.024 159.99 220.095 152.616 220.095 152.616C220.095 152.616 217.61 150.296 217.776 148.722C217.858 147.148 219.681 145.905 221.09 146.568C222.581 147.23 222.581 146.568 222.581 146.568C222.581 146.568 224.321 142.259 226.724 142.259C229.126 142.259 229.789 146.319 229.458 150.545C229.209 154.77 225.149 166.867 222.581 170.181C220.013 173.495 216.45 180.289 211.064 180.952C205.596 181.615 204.353 170.181 204.353 170.181Z" fill="#FF6F5F"/>
<path d="M170.383 175.069C170.383 175.069 191.925 173.826 195.405 172.666C198.885 171.506 204.602 168.938 206.507 170.844C208.413 172.749 212.224 181.366 210.982 183.272C210.402 184.1 207.916 186.337 204.188 188.243C199.465 190.563 193.417 190.314 193.417 196.942C193.417 201.334 194.328 209.95 194.162 214.507C193.997 219.064 193.499 229.007 182.314 230.912C171.129 232.818 160.524 228.758 158.701 224.036C156.795 219.313 157.293 208.293 157.293 207.879C155.801 205.311 152.653 202.742 155.304 190.48C157.21 182.526 163.589 175.649 170.383 175.069Z" fill="white"/>
<path d="M164.501 153.61C164.501 153.61 164.667 146.733 169.306 145.076C173.946 143.419 177.675 145.573 177.923 146.071C178.254 146.568 182.149 144.496 185.297 146.568C188.943 148.97 188.528 153.693 187.285 155.267C186.043 156.841 181.071 160.984 181.154 161.73C181.237 162.476 181.569 164.133 181.569 164.133C181.569 164.133 178.254 163.055 178.006 165.955C177.757 168.855 180.74 168.69 180.74 168.69C180.74 168.69 181.237 172.252 180.243 173.661C179.249 175.152 169.306 175.815 168.312 175.815C166.572 175.815 164.004 172.998 163.921 169.518C163.921 169.269 158.618 167.032 158.618 161.647C158.618 154.356 164.501 153.61 164.501 153.61Z" fill="#261616"/>
<defs>
<linearGradient id="paint0_linear_59_187" x1="108.824" y1="385.559" x2="107.185" y2="221.293" gradientUnits="userSpaceOnUse">
<stop stop-color="#B620E0"/>
<stop offset="1" stop-color="#244ADC" stop-opacity="0.01"/>
</linearGradient>
<linearGradient id="paint1_linear_59_187" x1="219.825" y1="239.722" x2="219.1" y2="421.499" gradientUnits="userSpaceOnUse">
<stop stop-color="#B620E0"/>
<stop offset="1" stop-color="#244ADC" stop-opacity="0.01"/>
</linearGradient>
<linearGradient id="paint2_linear_59_187" x1="418.627" y1="220.324" x2="416.506" y2="368.917" gradientUnits="userSpaceOnUse">
<stop stop-color="#B620E0"/>
<stop offset="1" stop-color="#244ADC" stop-opacity="0.01"/>
</linearGradient>
</defs>
</svg>
