<svg width="36" height="36" viewBox="0 0 36 36" fill="none" xmlns="http://www.w3.org/2000/svg">
<rect width="36" height="36" rx="18" fill="white"/>
<path fill-rule="evenodd" clip-rule="evenodd" d="M11.3122 12.5888C11.7461 11.9982 12.2944 11.501 12.9245 11.1267C13.0627 11.0424 13.2217 10.9986 13.3835 11C13.5454 11.0015 13.7036 11.0482 13.8402 11.1349L14.4529 11.5161C14.548 11.574 14.6312 11.6496 14.698 11.7387C14.7635 11.8282 14.8116 11.9292 14.8399 12.0364L15.5364 14.6344C15.5781 14.7838 15.579 14.9417 15.5388 15.0916C15.4986 15.2414 15.419 15.3777 15.3081 15.4862L14.7702 16.0249C14.6356 16.1558 14.5469 16.3267 14.5174 16.5121C14.4879 16.6976 14.5192 16.8876 14.6065 17.0537C15.0425 17.9132 15.6964 18.7791 16.4587 19.5412C17.2211 20.3032 18.0865 20.9578 18.9468 21.394C19.1129 21.4813 19.3028 21.5125 19.4881 21.483C19.6734 21.4535 19.8442 21.3648 19.975 21.2302L20.5141 20.6913C20.6226 20.5806 20.7589 20.5011 20.9086 20.461C21.0584 20.421 21.2161 20.4218 21.3654 20.4635L23.9644 21.1606C24.1811 21.2172 24.3674 21.3556 24.4842 21.5466L24.8647 22.1594C24.9515 22.2963 24.9983 22.4547 24.9999 22.6168C25.0004 22.7782 24.9566 22.9367 24.8735 23.0751C24.6869 23.3896 24.469 23.6845 24.2233 23.9554C23.9773 24.2256 23.7051 24.4708 23.4107 24.6874C23.2317 24.8216 23.0203 24.9063 22.7981 24.9328C22.0859 25.0243 21.3648 25.0224 20.6531 24.9274C18.3275 24.6238 16.0832 23.3906 14.3458 21.6537C12.6097 19.9172 11.3767 17.6729 11.0722 15.3473C10.9777 14.6352 10.9759 13.9138 11.0671 13.2013C11.0806 13.0907 11.1084 12.9824 11.1496 12.8789C11.1914 12.7758 11.2461 12.6783 11.3122 12.5888Z" fill="#172740"/>
</svg>
