<svg width="59" height="47" viewBox="0 0 59 47" fill="none" xmlns="http://www.w3.org/2000/svg">
<g clip-path="url(#clip0_22_242)">
<path d="M48.2204 0H3.11099C1.39995 0 0 1.39835 0 3.10744V12.4298C0 14.1388 1.39995 15.5372 3.11099 15.5372H48.2204C49.9314 15.5372 51.3314 14.1388 51.3314 12.4298V3.10744C51.3314 1.39835 49.9314 0 48.2204 0ZM9.33298 10.876C7.62193 10.876 6.22199 9.47769 6.22199 7.7686C6.22199 6.0595 7.62193 4.66116 9.33298 4.66116C11.044 4.66116 12.444 6.0595 12.444 7.7686C12.444 9.47769 11.044 10.876 9.33298 10.876ZM20.2215 10.876C18.5104 10.876 17.1105 9.47769 17.1105 7.7686C17.1105 6.0595 18.5104 4.66116 20.2215 4.66116C21.9325 4.66116 23.3325 6.0595 23.3325 7.7686C23.3325 9.47769 21.9325 10.876 20.2215 10.876ZM44.3317 9.71074H31.8877C30.8144 9.71074 29.9433 8.84066 29.9433 7.7686C29.9433 6.69653 30.8144 5.82645 31.8877 5.82645H44.3317C45.405 5.82645 46.276 6.69653 46.276 7.7686C46.276 8.84066 45.405 9.71074 44.3317 9.71074ZM0 23.3058V32.6281C0 34.3372 1.39995 35.7355 3.11099 35.7355H28.17C28.0612 34.9742 27.9989 34.1974 27.9989 33.4516C27.9989 32.6126 28.0612 31.7425 28.2012 30.8879C28.4345 29.3187 29.4922 28.0291 30.8922 27.4387C30.3322 26.0248 30.5033 24.3468 31.4521 23.0727C32.2454 22.0007 33.1943 21.0684 34.2054 20.1983H3.11099C1.39995 20.1983 0 21.5967 0 23.3058ZM20.2215 24.8595C21.9325 24.8595 23.3325 26.2579 23.3325 27.9669C23.3325 29.676 21.9325 31.0744 20.2215 31.0744C18.5104 31.0744 17.1105 29.676 17.1105 27.9669C17.1105 26.2579 18.5104 24.8595 20.2215 24.8595ZM9.33298 24.8595C11.044 24.8595 12.444 26.2579 12.444 27.9669C12.444 29.676 11.044 31.0744 9.33298 31.0744C7.62193 31.0744 6.22199 29.676 6.22199 27.9669C6.22199 26.2579 7.62193 24.8595 9.33298 24.8595Z" fill="#172740"/>
<path d="M58.8444 31.4628C58.7978 31.1676 58.5333 30.9501 58.2222 30.9501H56.9467C56.5423 30.8258 56.2157 30.515 56.0757 30.0955C55.8423 29.3497 55.5157 28.635 55.1268 27.9669C54.9868 27.7183 55.0179 27.4231 55.2201 27.2212L56.2468 26.1957C56.4645 25.9782 56.4956 25.6364 56.309 25.3878C55.5312 24.3312 54.5979 23.399 53.5402 22.6221C53.4313 22.5445 53.3069 22.4978 53.1824 22.4978C53.0113 22.4978 52.8558 22.56 52.7313 22.6843L51.7047 23.7097C51.5803 23.834 51.4403 23.8807 51.2847 23.8807C51.1758 23.8807 51.067 23.8496 50.9736 23.803C50.0403 23.2592 49.0137 22.8552 47.9249 22.6066V20.68C47.9249 20.3693 47.7071 20.1051 47.396 20.0585C46.7582 19.9653 46.1049 19.9031 45.4361 19.9031C44.7672 19.9031 44.1139 19.9497 43.4761 20.0585C43.1806 20.1051 42.9473 20.3693 42.9473 20.68V22.6066C41.8584 22.8552 40.8318 23.2592 39.8985 23.803C39.8052 23.8651 39.6963 23.8807 39.5874 23.8807C39.4318 23.8807 39.2763 23.8185 39.1674 23.7097L38.1408 22.6843C38.0163 22.56 37.8608 22.4978 37.6897 22.4978C37.5652 22.4978 37.4408 22.5445 37.3319 22.6221C36.2897 23.399 35.3564 24.3312 34.5631 25.3878C34.3765 25.6364 34.4076 25.9782 34.6254 26.1957L35.652 27.2212C35.8542 27.4231 35.8853 27.7183 35.7453 27.9669C35.3564 28.635 35.0453 29.3497 34.7965 30.0955C34.6565 30.515 34.3298 30.8413 33.9254 30.9501H32.6499C32.3388 30.9501 32.0743 31.1676 32.0277 31.4628C31.9343 32.1154 31.8721 32.7679 31.8721 33.4516C31.8721 34.1352 31.9343 34.7878 32.0277 35.4403C32.0743 35.7355 32.3388 35.9531 32.6499 35.9531H33.9254C34.3298 36.0774 34.6565 36.3881 34.7965 36.8076C35.0298 37.5534 35.3564 38.2681 35.7453 38.9362C35.8853 39.1848 35.8542 39.48 35.652 39.682L34.6254 40.7074C34.4076 40.925 34.3765 41.2668 34.5631 41.5154C35.3409 42.5719 36.2742 43.5041 37.3319 44.281C37.4408 44.3587 37.5652 44.4053 37.6897 44.4053C37.8608 44.4053 38.0163 44.3431 38.1408 44.2188L39.1674 43.1934C39.2918 43.0691 39.4318 43.0225 39.5874 43.0225C39.6963 43.0225 39.8052 43.0536 39.8985 43.1002C40.8318 43.644 41.8584 44.0479 42.9473 44.2965V46.2231C42.9473 46.5339 43.165 46.798 43.4761 46.8446C44.1139 46.9378 44.7672 47 45.4361 47C46.1049 47 46.7582 46.9534 47.396 46.8446C47.6915 46.798 47.9249 46.5339 47.9249 46.2231V44.2965C49.0137 44.0479 50.0403 43.644 50.9736 43.1002C51.067 43.038 51.1758 43.0225 51.2847 43.0225C51.4403 43.0225 51.5958 43.0846 51.7047 43.1934L52.7313 44.2188C52.8558 44.3431 53.0113 44.4053 53.1824 44.4053C53.3069 44.4053 53.4313 44.3587 53.5402 44.281C54.5824 43.5041 55.5157 42.5719 56.309 41.5154C56.4956 41.2668 56.4645 40.925 56.2468 40.7074L55.2201 39.682C55.0179 39.48 54.9868 39.1848 55.1268 38.9362C55.5157 38.2681 55.8268 37.5534 56.0757 36.8076C56.2157 36.3881 56.5423 36.0618 56.9467 35.9531H58.2222C58.5333 35.9531 58.7978 35.7355 58.8444 35.4403C58.9378 34.7878 59 34.1352 59 33.4516C59 32.7679 58.9378 32.1154 58.8444 31.4628ZM49.1226 34.042C48.8893 35.6112 47.5982 36.8853 46.0427 37.1183C45.8405 37.1494 45.6538 37.165 45.4516 37.165C43.2117 37.165 41.4229 35.1762 41.7806 32.8612C42.014 31.2919 43.305 30.0178 44.8605 29.7848C45.0627 29.7537 45.2494 29.7382 45.4516 29.7382C47.6915 29.7382 49.4804 31.7269 49.1226 34.042ZM27.5634 40.3967H6.22198C4.93092 40.3967 3.88873 41.4377 3.88873 42.7273C3.88873 44.0169 4.93092 45.0578 6.22198 45.0578H27.5634C28.8545 45.0578 29.8966 44.0169 29.8966 42.7273C29.8966 41.4377 28.8545 40.3967 27.5634 40.3967Z" fill="#172740"/>
</g>
<defs>
<clipPath id="clip0_22_242">
<rect width="59" height="47" fill="white"/>
</clipPath>
</defs>
</svg>
