<svg width="36" height="36" viewBox="0 0 36 36" fill="none" xmlns="http://www.w3.org/2000/svg">
<rect width="36" height="36" rx="18" fill="white"/>
<path d="M17.2308 10.4797C13.5118 10.4797 10.4823 13.5092 10.4823 17.2283C10.4823 20.9473 13.5118 23.9827 17.2308 23.9827C18.8194 23.9827 20.2803 23.426 21.4349 22.5017L24.246 25.3112C24.3878 25.4472 24.5773 25.5223 24.7738 25.5202C24.9703 25.5182 25.1582 25.4394 25.2972 25.3005C25.4363 25.1617 25.5154 24.9739 25.5177 24.7774C25.52 24.5809 25.4452 24.3913 25.3094 24.2493L22.4984 21.4383C23.4235 20.2818 23.9808 18.8186 23.9808 17.2283C23.9808 13.5092 20.9499 10.4797 17.2308 10.4797ZM17.2308 11.9797C20.1392 11.9797 22.4794 14.3199 22.4794 17.2283C22.4794 20.1366 20.1392 22.4827 17.2308 22.4827C14.3225 22.4827 11.9823 20.1366 11.9823 17.2283C11.9823 14.3199 14.3225 11.9797 17.2308 11.9797Z" fill="#172740"/>
</svg>
